M48
;Layer_Color=9474304
;FILE_FORMAT=2:5
INCH,LZ
;TYPE=PLATED
T4F00S00C0.01181
T5F00S00C0.03543
T6F00S00C0.12598
%
T04
X0003937Y0003937
Y0023622
Y0043307
Y0062992
X0005118Y0070079
X002874Y0059842
X0062598Y0055905
X0068504Y0054724
Y0058661
X0063779Y0066535
X0070866Y0074016
X007441Y0044488
X0069291Y0018504
X0063779
X0066535Y001378
X0069291Y0009055
X0063779
X0062992Y0003937
X0043307
X0023622
X0024803Y0025197
X0082677Y0003937
X0102362
X0122441Y0003543
X0141732Y0003937
X0161417
X0181102
X0200787
X0220472
X022126Y0035433
Y0051181
X0220473Y0059055
Y0066929
Y0074803
X0176772Y0035433
X0164567Y0035433
X0145669Y0041732
X0140945Y0043701
X0132283
X0124016Y0043307
X0119685
X0114173Y0047244
X0112205Y0051968
X0107087Y0047244
Y003937
X0114173
Y0031496
X0107087
X0127118Y0027118
X013Y0025197
X0142913Y0025591
X0133661Y0036417
X0142126Y005748
X0129921Y0072835
X0107087Y0070472
Y0067323
X0103543Y0058268
Y0054331
X0182283Y0025984
X0240158Y0003937
X0255906
X0266142Y0016535
Y003622
X0248524Y0049213
X0248425Y0075197
X0266142Y0081102
X0266929Y01
X0266142Y0119685
Y0148031
X0258661Y0155118
X0255906Y0163386
Y0183071
Y0198425
X0240158Y0205906
X0235827Y0159055
X0234646Y0150787
X0236614Y0144488
X0235433Y0140157
X0235039Y0135433
Y0130709
Y0125984
X0240945Y0130709
Y0135433
X0239764Y014685
X0238386Y0097638
X0220473Y0082677
X0212204Y0111417
X0212205Y0116142
Y0120866
Y0125591
X0216535Y0130709
X0219291Y0128347
X0221654Y0140157
X0219291Y0148425
X0220177Y0152461
X0222736Y015
X0227854
X0230413Y0152461
X0215059
X0212598Y015
X02125Y0160531
X0207382
X02Y0162205
X0191339
X0181201Y0162992
X0178642Y0160531
X0176083Y0162992
X0173524Y0160531
X0168405
X0164173Y0167717
X0161024Y0176378
X0157087
X0145276
X0143307Y0182677
X0149213Y0183071
X0135433Y0176378
X0131889Y0176378
X0130512Y0170276
X0134449
X0138386
X0140551Y0162204
X0135433Y0161417
X0134252Y0157874
X0138976Y0153543
X0138583Y0148425
X0136221Y0145276
X0141732Y0145079
Y0141142
X0149803Y0139173
Y014311
X0155118Y0144095
X0158661Y0143307
X0165748Y0146457
X0179921Y0152461
X018376Y015
X0193307Y0147638
X019685
X0206693Y0138189
X0209842Y0140157
X0201181Y0130315
X0198425Y0127559
X0199213Y0124016
X0201181Y0116535
X02Y0110236
X0197244Y0112598
X0192913Y0111811
X0194095Y0107874
X0191339Y0105512
X019685Y010315
X0187795Y0112599
X0183465Y011063
X0179921Y011811
X0178347Y0124803
X0182283Y0125591
X0184646Y0129921
X0188583
X0193701Y0130315
X0191338Y0133071
X0190551Y0174409
X0185827
X0196063Y0187795
X0200787Y0205906
X0220472
X0220177Y0174016
X0225295
X0203937Y0167717
X0181102Y0205906
X0161417
X0141732
X0122047
X0119685Y0190157
X012874Y0191732
X0127165Y0182677
X0118504Y0179921
X0120472Y0176772
X0121653Y0161811
X0125591
X0120866Y0148425
X0120866Y0143701
X011811Y0146063
X0117717Y0140945
X0120472Y0138583
X0129528Y0140945
X0134252Y0138583
X0126772Y011752
X0122441Y0117323
X0118504Y011752
X0124409Y0113779
X0111417Y0114567
X0112598Y0111024
X0096457Y0114173
X0092126
X008937Y0117717
X0092126Y012126
X0081102Y0121653
X0076378
Y0132677
X0081102
X0085039Y0137795
X0091338Y0136614
X0094882Y0136152
X0103937Y0133071
X0111417Y0131496
X0101969Y0149213
X009685Y0148031
X0099606Y0158661
X0104331Y0163779
Y0168898
X0097638Y0166929
X01Y0173228
X0102362Y0205906
X0082677
X0086221Y0111417
X0077165Y0105905
X0129921Y0102756
X0124016Y0082284
X011811Y0082284
X0112992
X0165354Y0082677
Y0090551
X0165354Y0102362
X0168898
X0162205Y0109055
Y0113779
X0159449Y0111417
Y0106693
X0151969Y0158661
X0063779Y0164567
X0053543Y0163386
X005748Y0172441
X0044685Y0172638
X0041732Y0175197
X0037402Y0174803
X0029921Y0177559
X00275Y0183012
X0024803Y0180709
X002126Y018189
Y0186614
X0021298Y019012
X0038189Y0195669
X0043307Y0205906
X0048031Y0176378
X0037008Y0160236
X0038583Y0155118
Y0151181
X0034252Y0144095
X0036614Y0133858
X0038189Y0129134
X0047244Y0133858
X004685Y0137795
X0054724Y0124409
X0057874
X0060236Y0119291
X0064567Y0117717
X0061811Y0109843
X0064173Y0106299
Y0098819
Y0096063
X0052165Y0096653
Y009941
X0049213Y0098032
X004626Y009941
Y0096653
X0040157Y0107087
X002874Y0110236
X002126Y0104331
X0003937Y0109843
X0005512Y009685
X0003937Y0079921
X0034055Y008248
X0042913Y0079528
X0049213Y0081496
X005315Y0079134
X0057874Y0084645
X0072047Y0102362
X0074803Y0108661
Y0114567
X0020866Y0141732
X0020079Y0156299
X0029921Y0156693
X0003937Y0150787
Y0138976
T05
X011Y001
X012
X013
X014
X015
X016
X017
X018
X02
X021
X022
X023
X024
X025
X0250551Y0099803
X0260551
Y0109803
X0250551
Y0119803
X0260551
X025Y02
X024
X023
X022
X021
X02
X019
X018
X0164
X0154
X0144
X0134
X0124
X0114
X0104
X0094
X0084
X0074
X0014567Y0151969
Y0141969
T06
X0055Y001
X026Y003
Y014
X006Y02
M30
