G04 Layer_Color=8388736*
%FSLAX25Y25*%
%MOIN*%
G70*
G01*
G75*
%ADD90R,0.03359X0.04147*%
%ADD91R,0.04147X0.03359*%
%ADD92R,0.02768X0.02768*%
%ADD93R,0.02768X0.02768*%
%ADD94R,0.07099X0.04737*%
G04:AMPARAMS|DCode=95|XSize=118.24mil|YSize=102.49mil|CornerRadius=8.72mil|HoleSize=0mil|Usage=FLASHONLY|Rotation=0.000|XOffset=0mil|YOffset=0mil|HoleType=Round|Shape=RoundedRectangle|*
%AMROUNDEDRECTD95*
21,1,0.11824,0.08504,0,0,0.0*
21,1,0.10079,0.10249,0,0,0.0*
1,1,0.01745,0.05039,-0.04252*
1,1,0.01745,-0.05039,-0.04252*
1,1,0.01745,-0.05039,0.04252*
1,1,0.01745,0.05039,0.04252*
%
%ADD95ROUNDEDRECTD95*%
%ADD96R,0.08280X0.05131*%
%ADD97O,0.04147X0.02572*%
%ADD98R,0.07099X0.10642*%
%ADD99R,0.02178X0.02965*%
%ADD100R,0.02965X0.02178*%
%ADD101R,0.12611X0.05524*%
%ADD102R,0.06706X0.05918*%
%ADD103R,0.01784X0.03950*%
%ADD104O,0.01784X0.05721*%
%ADD105O,0.05721X0.01784*%
%ADD106R,0.02375X0.03359*%
%ADD107R,0.08674X0.05524*%
%ADD108R,0.01902X0.03950*%
%ADD109R,0.01496X0.03347*%
%ADD110R,0.04737X0.09265*%
%ADD111R,0.13398X0.09265*%
%ADD112R,0.02323X0.01575*%
%ADD113R,0.02441X0.01575*%
%ADD114O,0.02375X0.05524*%
%ADD115C,0.04737*%
%ADD116R,0.03162X0.05131*%
%ADD117R,0.04737X0.08674*%
%ADD118R,0.03300X0.08800*%
%ADD119R,0.11430X0.04737*%
%ADD120R,0.06115X0.04461*%
%ADD121R,0.09383X0.07178*%
%ADD122R,0.05603X0.04383*%
%ADD123R,0.03800X0.10249*%
G04:AMPARAMS|DCode=124|XSize=23.75mil|YSize=63.12mil|CornerRadius=4.79mil|HoleSize=0mil|Usage=FLASHONLY|Rotation=270.000|XOffset=0mil|YOffset=0mil|HoleType=Round|Shape=RoundedRectangle|*
%AMROUNDEDRECTD124*
21,1,0.02375,0.05354,0,0,270.0*
21,1,0.01417,0.06312,0,0,270.0*
1,1,0.00957,-0.02677,-0.00709*
1,1,0.00957,-0.02677,0.00709*
1,1,0.00957,0.02677,0.00709*
1,1,0.00957,0.02677,-0.00709*
%
%ADD124ROUNDEDRECTD124*%
G04:AMPARAMS|DCode=125|XSize=78.87mil|YSize=82.8mil|CornerRadius=7.54mil|HoleSize=0mil|Usage=FLASHONLY|Rotation=270.000|XOffset=0mil|YOffset=0mil|HoleType=Round|Shape=RoundedRectangle|*
%AMROUNDEDRECTD125*
21,1,0.07887,0.06772,0,0,270.0*
21,1,0.06378,0.08280,0,0,270.0*
1,1,0.01509,-0.03386,-0.03189*
1,1,0.01509,-0.03386,0.03189*
1,1,0.01509,0.03386,0.03189*
1,1,0.01509,0.03386,-0.03189*
%
%ADD125ROUNDEDRECTD125*%
G04:AMPARAMS|DCode=126|XSize=98.55mil|YSize=82.8mil|CornerRadius=7.74mil|HoleSize=0mil|Usage=FLASHONLY|Rotation=270.000|XOffset=0mil|YOffset=0mil|HoleType=Round|Shape=RoundedRectangle|*
%AMROUNDEDRECTD126*
21,1,0.09855,0.06732,0,0,270.0*
21,1,0.08307,0.08280,0,0,270.0*
1,1,0.01548,-0.03366,-0.04153*
1,1,0.01548,-0.03366,0.04153*
1,1,0.01548,0.03366,0.04153*
1,1,0.01548,0.03366,-0.04153*
%
%ADD126ROUNDEDRECTD126*%
%ADD127R,0.04737X0.06312*%
%ADD128R,0.04147X0.04343*%
%ADD129R,0.06312X0.04737*%
%ADD130R,0.04343X0.04147*%
%ADD131R,0.07690X0.05524*%
%ADD132R,0.05524X0.07690*%
%ADD133R,0.20485X0.06706*%
%ADD134R,0.20485X0.08674*%
%ADD135R,0.07874X0.07874*%
%ADD136C,0.07874*%
%ADD137C,0.13398*%
%ADD138C,0.07887*%
%ADD139C,0.07099*%
%ADD140C,0.06706*%
%ADD141R,0.06706X0.06706*%
%ADD142R,0.06706X0.06706*%
%ADD143C,0.01181*%
G36*
X135682Y111815D02*
X135734Y111804D01*
X135783Y111788D01*
X135830Y111765D01*
X135874Y111735D01*
X135913Y111701D01*
X135948Y111661D01*
X135977Y111618D01*
X136000Y111571D01*
X136017Y111521D01*
X136027Y111470D01*
X136031Y111417D01*
Y107480D01*
X136027Y107428D01*
X136017Y107377D01*
X136000Y107327D01*
X135977Y107280D01*
X135948Y107236D01*
X135913Y107197D01*
X135874Y107162D01*
X135830Y107133D01*
X135783Y107110D01*
X135734Y107093D01*
X135682Y107083D01*
X135630Y107080D01*
X127803D01*
X127751Y107083D01*
X127699Y107093D01*
X127650Y107110D01*
X127603Y107133D01*
X127559Y107162D01*
X127520Y107197D01*
X127485Y107236D01*
X127456Y107280D01*
X127433Y107327D01*
X127416Y107377D01*
X127406Y107428D01*
X127402Y107480D01*
Y111417D01*
X127406Y111470D01*
X127416Y111521D01*
X127433Y111571D01*
X127456Y111618D01*
X127485Y111661D01*
X127520Y111701D01*
X127559Y111735D01*
X127603Y111765D01*
X127650Y111788D01*
X127699Y111804D01*
X127751Y111815D01*
X127803Y111818D01*
X135630D01*
X135682Y111815D01*
D02*
G37*
G36*
X121855D02*
X121907Y111804D01*
X121957Y111788D01*
X122004Y111765D01*
X122047Y111735D01*
X122087Y111701D01*
X122121Y111661D01*
X122150Y111618D01*
X122174Y111571D01*
X122190Y111521D01*
X122201Y111470D01*
X122204Y111417D01*
Y107480D01*
X122201Y107428D01*
X122190Y107377D01*
X122174Y107327D01*
X122150Y107280D01*
X122121Y107236D01*
X122087Y107197D01*
X122047Y107162D01*
X122004Y107133D01*
X121957Y107110D01*
X121907Y107093D01*
X121855Y107083D01*
X121803Y107080D01*
X113976D01*
X113924Y107083D01*
X113873Y107093D01*
X113823Y107110D01*
X113776Y107133D01*
X113732Y107162D01*
X113693Y107197D01*
X113658Y107236D01*
X113629Y107280D01*
X113606Y107327D01*
X113589Y107377D01*
X113579Y107428D01*
X113575Y107480D01*
Y111417D01*
X113579Y111470D01*
X113589Y111521D01*
X113606Y111571D01*
X113629Y111618D01*
X113658Y111661D01*
X113693Y111701D01*
X113732Y111735D01*
X113776Y111765D01*
X113823Y111788D01*
X113873Y111804D01*
X113924Y111815D01*
X113976Y111818D01*
X121803D01*
X121855Y111815D01*
D02*
G37*
G36*
X54765Y120177D02*
X54816Y120167D01*
X54866Y120150D01*
X54913Y120127D01*
X54957Y120098D01*
X54996Y120063D01*
X55996Y119063D01*
X56031Y119024D01*
X56060Y118980D01*
X56083Y118933D01*
X56100Y118883D01*
X56110Y118832D01*
X56113Y118780D01*
Y108780D01*
X56110Y108727D01*
X56100Y108676D01*
X56083Y108626D01*
X56060Y108579D01*
X56031Y108536D01*
X55996Y108496D01*
X54996Y107496D01*
X54957Y107462D01*
X54913Y107432D01*
X54866Y107409D01*
X54816Y107392D01*
X54765Y107382D01*
X54713Y107379D01*
X51213D01*
X51160Y107382D01*
X51109Y107392D01*
X51059Y107409D01*
X51012Y107432D01*
X50969Y107462D01*
X50929Y107496D01*
X50895Y107536D01*
X50865Y107579D01*
X50842Y107626D01*
X50825Y107676D01*
X50815Y107727D01*
X50812Y107780D01*
Y110529D01*
X50813Y110548D01*
X50813Y110566D01*
X50815Y110574D01*
X50815Y110582D01*
X50819Y110600D01*
X50822Y110618D01*
X50824Y110625D01*
X50825Y110633D01*
X50831Y110651D01*
X50836Y110668D01*
X50840Y110675D01*
X50842Y110683D01*
X50850Y110699D01*
X50858Y110716D01*
X50862Y110723D01*
X50865Y110730D01*
X50876Y110745D01*
X50885Y110761D01*
X50890Y110767D01*
X50895Y110774D01*
X50907Y110787D01*
X50918Y110801D01*
X50924Y110807D01*
X50929Y110813D01*
X50943Y110825D01*
X50956Y110837D01*
X52312Y111967D01*
Y115592D01*
X50956Y116722D01*
X50943Y116734D01*
X50929Y116746D01*
X50924Y116752D01*
X50918Y116758D01*
X50907Y116772D01*
X50895Y116786D01*
X50890Y116792D01*
X50885Y116798D01*
X50876Y116814D01*
X50865Y116829D01*
X50862Y116836D01*
X50858Y116843D01*
X50850Y116860D01*
X50842Y116876D01*
X50840Y116884D01*
X50836Y116891D01*
X50831Y116908D01*
X50825Y116926D01*
X50824Y116934D01*
X50822Y116941D01*
X50819Y116959D01*
X50815Y116977D01*
X50815Y116985D01*
X50813Y116993D01*
X50813Y117011D01*
X50812Y117030D01*
Y119780D01*
X50815Y119832D01*
X50825Y119883D01*
X50842Y119933D01*
X50865Y119980D01*
X50895Y120024D01*
X50929Y120063D01*
X50969Y120098D01*
X51012Y120127D01*
X51059Y120150D01*
X51109Y120167D01*
X51160Y120177D01*
X51213Y120180D01*
X54713D01*
X54765Y120177D01*
D02*
G37*
G36*
X47265D02*
X47316Y120167D01*
X47366Y120150D01*
X47413Y120127D01*
X47457Y120098D01*
X47496Y120063D01*
X47531Y120024D01*
X47560Y119980D01*
X47583Y119933D01*
X47600Y119883D01*
X47610Y119832D01*
X47613Y119780D01*
Y117030D01*
X47612Y117011D01*
X47612Y116993D01*
X47611Y116985D01*
X47610Y116977D01*
X47607Y116959D01*
X47604Y116941D01*
X47601Y116934D01*
X47600Y116926D01*
X47594Y116908D01*
X47589Y116891D01*
X47586Y116884D01*
X47583Y116876D01*
X47575Y116860D01*
X47567Y116843D01*
X47563Y116836D01*
X47560Y116829D01*
X47550Y116814D01*
X47540Y116798D01*
X47535Y116792D01*
X47531Y116786D01*
X47519Y116772D01*
X47507Y116758D01*
X47501Y116752D01*
X47496Y116746D01*
X47482Y116734D01*
X47469Y116722D01*
X46113Y115592D01*
Y111967D01*
X47469Y110837D01*
X47482Y110825D01*
X47496Y110813D01*
X47501Y110807D01*
X47507Y110801D01*
X47519Y110787D01*
X47531Y110774D01*
X47535Y110767D01*
X47540Y110761D01*
X47550Y110745D01*
X47560Y110730D01*
X47563Y110723D01*
X47567Y110716D01*
X47575Y110699D01*
X47583Y110683D01*
X47586Y110675D01*
X47589Y110668D01*
X47594Y110651D01*
X47600Y110633D01*
X47601Y110625D01*
X47604Y110618D01*
X47607Y110600D01*
X47610Y110582D01*
X47611Y110574D01*
X47612Y110566D01*
X47612Y110548D01*
X47613Y110529D01*
Y107780D01*
X47610Y107727D01*
X47600Y107676D01*
X47583Y107626D01*
X47560Y107579D01*
X47531Y107536D01*
X47496Y107496D01*
X47457Y107462D01*
X47413Y107432D01*
X47366Y107409D01*
X47316Y107392D01*
X47265Y107382D01*
X47213Y107379D01*
X43713D01*
X43660Y107382D01*
X43609Y107392D01*
X43559Y107409D01*
X43512Y107432D01*
X43469Y107462D01*
X43429Y107496D01*
X42429Y108496D01*
X42395Y108536D01*
X42365Y108579D01*
X42342Y108626D01*
X42325Y108676D01*
X42315Y108727D01*
X42312Y108780D01*
Y118780D01*
X42315Y118832D01*
X42325Y118883D01*
X42342Y118933D01*
X42365Y118980D01*
X42395Y119024D01*
X42429Y119063D01*
X43429Y120063D01*
X43469Y120098D01*
X43512Y120127D01*
X43559Y120150D01*
X43609Y120167D01*
X43660Y120177D01*
X43713Y120180D01*
X47213D01*
X47265Y120177D01*
D02*
G37*
D90*
X100984Y136221D02*
D03*
X106890D02*
D03*
X202165Y179921D02*
D03*
X196260D02*
D03*
X100984Y168898D02*
D03*
X106890D02*
D03*
X100984Y163779D02*
D03*
X106890D02*
D03*
X106890Y140945D02*
D03*
X100984D02*
D03*
X30118Y140551D02*
D03*
X24213D02*
D03*
X24213Y145669D02*
D03*
X30118D02*
D03*
X97047Y144488D02*
D03*
X91142D02*
D03*
X110433Y47244D02*
D03*
X116339D02*
D03*
X110433Y39370D02*
D03*
X116339D02*
D03*
X110433Y31496D02*
D03*
X116339D02*
D03*
X54134Y159055D02*
D03*
X48228D02*
D03*
X57677Y135039D02*
D03*
X51772D02*
D03*
X36024Y195669D02*
D03*
X30118D02*
D03*
D91*
X106693Y159646D02*
D03*
Y153740D02*
D03*
X42913Y88386D02*
D03*
Y82480D02*
D03*
X38189Y82480D02*
D03*
Y88386D02*
D03*
X53543Y166732D02*
D03*
Y172638D02*
D03*
X53150Y87992D02*
D03*
Y82087D02*
D03*
X57874Y82087D02*
D03*
Y87992D02*
D03*
X123622Y179724D02*
D03*
Y173819D02*
D03*
X128347Y179724D02*
D03*
Y173819D02*
D03*
X127165Y82087D02*
D03*
Y76181D02*
D03*
X196457Y169095D02*
D03*
Y175000D02*
D03*
D92*
X102756Y158268D02*
D03*
Y154331D02*
D03*
X201181Y126772D02*
D03*
Y122835D02*
D03*
X238583Y159055D02*
D03*
Y155118D02*
D03*
X145669Y39370D02*
D03*
Y35433D02*
D03*
X118504Y175197D02*
D03*
Y171260D02*
D03*
X111417Y117126D02*
D03*
Y121063D02*
D03*
Y128937D02*
D03*
Y125000D02*
D03*
X49213Y84252D02*
D03*
Y88189D02*
D03*
X57480Y126772D02*
D03*
Y130709D02*
D03*
X203543Y170079D02*
D03*
Y174016D02*
D03*
Y165354D02*
D03*
Y161417D02*
D03*
X31890Y186221D02*
D03*
Y182283D02*
D03*
X164173Y170079D02*
D03*
Y174016D02*
D03*
Y165354D02*
D03*
Y161417D02*
D03*
D93*
X104331Y149213D02*
D03*
X108268D02*
D03*
X104331Y145276D02*
D03*
X108268D02*
D03*
X178346Y122441D02*
D03*
X182283D02*
D03*
X141339Y178740D02*
D03*
X145276D02*
D03*
X155118Y147047D02*
D03*
X151181D02*
D03*
X125984Y127559D02*
D03*
X129921D02*
D03*
X92126Y68110D02*
D03*
X88189D02*
D03*
X118504Y120079D02*
D03*
X122441D02*
D03*
X118504Y124016D02*
D03*
X122441D02*
D03*
X43701Y159055D02*
D03*
X39764D02*
D03*
D94*
X14961Y124016D02*
D03*
Y114173D02*
D03*
Y104331D02*
D03*
X5512D02*
D03*
Y114173D02*
D03*
Y124016D02*
D03*
D95*
X15157Y25197D02*
D03*
X39173D02*
D03*
Y70079D02*
D03*
X15157D02*
D03*
D96*
X103543Y118110D02*
D03*
Y127953D02*
D03*
D97*
X254921Y151181D02*
D03*
Y155118D02*
D03*
Y159055D02*
D03*
X243504D02*
D03*
Y155118D02*
D03*
Y151181D02*
D03*
D98*
X249213Y155118D02*
D03*
D99*
X187795Y115748D02*
D03*
X189764D02*
D03*
X191732D02*
D03*
X193701D02*
D03*
X195669D02*
D03*
Y125197D02*
D03*
X193701D02*
D03*
X191732D02*
D03*
X189764D02*
D03*
X187795D02*
D03*
D100*
X196457Y118504D02*
D03*
Y120473D02*
D03*
Y122441D02*
D03*
X187008D02*
D03*
Y120473D02*
D03*
Y118504D02*
D03*
D101*
X229724Y90551D02*
D03*
Y82677D02*
D03*
Y74803D02*
D03*
Y66929D02*
D03*
Y59055D02*
D03*
Y51181D02*
D03*
Y43307D02*
D03*
Y35433D02*
D03*
X156102D02*
D03*
Y43307D02*
D03*
Y51181D02*
D03*
Y59055D02*
D03*
Y90551D02*
D03*
Y82677D02*
D03*
Y74803D02*
D03*
Y66929D02*
D03*
D102*
X151181Y172835D02*
D03*
D103*
X154134Y178524D02*
D03*
X152165D02*
D03*
X150197D02*
D03*
X148228D02*
D03*
X154134Y167146D02*
D03*
X152165D02*
D03*
X150197D02*
D03*
X148228D02*
D03*
D104*
X118701Y133760D02*
D03*
X120669D02*
D03*
X122638D02*
D03*
X124606D02*
D03*
X126575D02*
D03*
X128543D02*
D03*
X130512D02*
D03*
X132480D02*
D03*
X134449D02*
D03*
X136417D02*
D03*
X138386D02*
D03*
X140354D02*
D03*
Y166240D02*
D03*
X138386D02*
D03*
X136417D02*
D03*
X134449D02*
D03*
X132480D02*
D03*
X130512D02*
D03*
X128543D02*
D03*
X126575D02*
D03*
X124606D02*
D03*
X122638D02*
D03*
X120669D02*
D03*
X118701D02*
D03*
D105*
X145768Y139173D02*
D03*
Y141142D02*
D03*
Y143110D02*
D03*
Y145079D02*
D03*
Y147047D02*
D03*
Y149016D02*
D03*
Y150984D02*
D03*
Y152953D02*
D03*
Y154921D02*
D03*
Y156890D02*
D03*
Y158858D02*
D03*
Y160827D02*
D03*
X113287D02*
D03*
Y158858D02*
D03*
Y156890D02*
D03*
Y154921D02*
D03*
Y152953D02*
D03*
Y150984D02*
D03*
Y149016D02*
D03*
Y147047D02*
D03*
Y145079D02*
D03*
Y143110D02*
D03*
Y141142D02*
D03*
Y139173D02*
D03*
D106*
X34843Y172933D02*
D03*
X32283D02*
D03*
X29724D02*
D03*
Y164862D02*
D03*
X32283D02*
D03*
X34843D02*
D03*
D107*
X49213Y98032D02*
D03*
D108*
Y93110D02*
D03*
X45276D02*
D03*
X47244D02*
D03*
X51181D02*
D03*
X53150D02*
D03*
Y102953D02*
D03*
X51181D02*
D03*
X47244D02*
D03*
X45276D02*
D03*
X49213D02*
D03*
D109*
X62205Y127657D02*
D03*
X64173D02*
D03*
X66142D02*
D03*
X62205Y132185D02*
D03*
X64173D02*
D03*
X66142D02*
D03*
D110*
X86221Y75886D02*
D03*
X95276D02*
D03*
X104331D02*
D03*
X101181Y46161D02*
D03*
X92126D02*
D03*
X83071D02*
D03*
D111*
X95276Y98917D02*
D03*
X92126Y23130D02*
D03*
D112*
X27500Y189370D02*
D03*
Y187402D02*
D03*
Y185433D02*
D03*
X24468D02*
D03*
Y187402D02*
D03*
D113*
Y189370D02*
D03*
D114*
X207382Y156496D02*
D03*
X209941D02*
D03*
X212500D02*
D03*
X215059D02*
D03*
X217618D02*
D03*
X220177D02*
D03*
X222736D02*
D03*
X225295D02*
D03*
X227854D02*
D03*
X230413D02*
D03*
X207382Y178937D02*
D03*
X209941D02*
D03*
X212500D02*
D03*
X215059D02*
D03*
X217618D02*
D03*
X220177D02*
D03*
X222736D02*
D03*
X225295D02*
D03*
X227854D02*
D03*
X230413D02*
D03*
X168405Y156496D02*
D03*
X170965D02*
D03*
X173524D02*
D03*
X176083D02*
D03*
X178642D02*
D03*
X181201D02*
D03*
X183760D02*
D03*
X186319D02*
D03*
X188878D02*
D03*
X191437D02*
D03*
X168405Y178937D02*
D03*
X170965D02*
D03*
X173524D02*
D03*
X176083D02*
D03*
X178642D02*
D03*
X181201D02*
D03*
X183760D02*
D03*
X186319D02*
D03*
X188878D02*
D03*
X191437D02*
D03*
D115*
X68898Y107874D02*
D03*
X63779Y164567D02*
D03*
X78347Y143701D02*
D03*
D116*
X44488Y164272D02*
D03*
X40748Y171949D02*
D03*
X48228D02*
D03*
D117*
X129331Y109449D02*
D03*
X120276D02*
D03*
D118*
X54213Y113779D02*
D03*
X44213D02*
D03*
D119*
X64173Y140945D02*
D03*
Y149606D02*
D03*
D120*
X37795Y182815D02*
D03*
Y189626D02*
D03*
D121*
X64567Y23976D02*
D03*
Y40591D02*
D03*
D122*
X91732Y139911D02*
D03*
Y127018D02*
D03*
X70866Y98573D02*
D03*
Y85679D02*
D03*
Y66782D02*
D03*
Y79675D02*
D03*
X61024Y60778D02*
D03*
Y47884D02*
D03*
D123*
X122283Y65945D02*
D03*
X127284D02*
D03*
X132283D02*
D03*
X137284D02*
D03*
X142283D02*
D03*
X122283Y50591D02*
D03*
X127284D02*
D03*
X132283D02*
D03*
X137284D02*
D03*
X142283D02*
D03*
D124*
X16634Y192126D02*
D03*
Y189567D02*
D03*
Y187008D02*
D03*
Y184449D02*
D03*
Y181890D02*
D03*
D125*
X5413Y191535D02*
D03*
Y182480D02*
D03*
D126*
Y201772D02*
D03*
Y172244D02*
D03*
D127*
X132972Y122047D02*
D03*
X126870D02*
D03*
X93799Y56299D02*
D03*
X99902D02*
D03*
D128*
X140945Y35630D02*
D03*
Y40748D02*
D03*
X40551Y103740D02*
D03*
Y98622D02*
D03*
X71260Y132480D02*
D03*
Y127362D02*
D03*
D129*
X59449Y103839D02*
D03*
Y97736D02*
D03*
X51575Y123721D02*
D03*
Y129823D02*
D03*
D130*
X37795Y177559D02*
D03*
X32677D02*
D03*
X28543Y160236D02*
D03*
X33661D02*
D03*
X64370Y121653D02*
D03*
X69488D02*
D03*
X102953Y67716D02*
D03*
X97835D02*
D03*
D131*
X78347Y126575D02*
D03*
Y137205D02*
D03*
D132*
X72244Y56693D02*
D03*
X82874D02*
D03*
X38386Y202362D02*
D03*
X27756D02*
D03*
X34843Y153150D02*
D03*
X24213D02*
D03*
D133*
X259370Y49409D02*
D03*
Y75000D02*
D03*
D134*
Y62205D02*
D03*
D135*
X249213Y172835D02*
D03*
D136*
X11811Y11811D02*
D03*
D137*
X60000Y200000D02*
D03*
X55000Y10000D02*
D03*
X260000Y140000D02*
D03*
Y30000D02*
D03*
D138*
X32874Y47638D02*
D03*
D139*
X15157D02*
D03*
D140*
X14567Y141969D02*
D03*
X250000Y10000D02*
D03*
X210000D02*
D03*
X220000D02*
D03*
X230000D02*
D03*
X240000D02*
D03*
X260551Y99803D02*
D03*
X250551D02*
D03*
X260551Y109803D02*
D03*
X250551D02*
D03*
X260551Y119803D02*
D03*
X74000Y200000D02*
D03*
X84000D02*
D03*
X154000D02*
D03*
X144000D02*
D03*
X134000D02*
D03*
X124000D02*
D03*
X114000D02*
D03*
X104000D02*
D03*
X94000D02*
D03*
X240000D02*
D03*
X230000D02*
D03*
X220000D02*
D03*
X210000D02*
D03*
X200000D02*
D03*
X190000D02*
D03*
X180000D02*
D03*
X170000Y10000D02*
D03*
X160000D02*
D03*
X150000D02*
D03*
X140000D02*
D03*
X130000D02*
D03*
X120000D02*
D03*
X110000D02*
D03*
D141*
X14567Y151969D02*
D03*
X250551Y119803D02*
D03*
D142*
X200000Y10000D02*
D03*
X164000Y200000D02*
D03*
X250000D02*
D03*
X180000Y10000D02*
D03*
D143*
X248524Y49213D02*
D03*
X248425Y75197D02*
D03*
X118504Y179921D02*
D03*
X119685Y190157D02*
D03*
X128740Y191732D02*
D03*
X127165Y182677D02*
D03*
X143307D02*
D03*
X135433Y176378D02*
D03*
X131889Y176378D02*
D03*
X240945Y135433D02*
D03*
X235039Y125984D02*
D03*
Y130709D02*
D03*
X240945D02*
D03*
X103937Y133071D02*
D03*
X191339Y162205D02*
D03*
X200000D02*
D03*
X179921Y152461D02*
D03*
X112205Y51968D02*
D03*
X142126Y57480D02*
D03*
X132283Y43701D02*
D03*
X124016Y43307D02*
D03*
X129921Y72835D02*
D03*
X124016Y82284D02*
D03*
X112992Y82284D02*
D03*
X118110D02*
D03*
X112598Y111024D02*
D03*
X120866Y148425D02*
D03*
X96850Y148031D02*
D03*
X101969Y149213D02*
D03*
X99606Y158661D02*
D03*
X97638Y166929D02*
D03*
X209842Y140157D02*
D03*
X219291Y148425D02*
D03*
X212598Y150000D02*
D03*
X220177Y152461D02*
D03*
X215059D02*
D03*
X227854Y150000D02*
D03*
X222736D02*
D03*
X196850Y147638D02*
D03*
X193307D02*
D03*
X122441Y3543D02*
D03*
X94882Y136152D02*
D03*
X120472Y138583D02*
D03*
X165748Y146457D02*
D03*
X158661Y143307D02*
D03*
X196063Y187795D02*
D03*
X38583Y155118D02*
D03*
X53543Y163386D02*
D03*
X37008Y160236D02*
D03*
X89370Y117717D02*
D03*
X86221Y111417D02*
D03*
X96457Y114173D02*
D03*
X92126D02*
D03*
X140551Y162204D02*
D03*
X135433Y161417D02*
D03*
X134252Y157874D02*
D03*
X21298Y190120D02*
D03*
X21260Y186614D02*
D03*
X125591Y161811D02*
D03*
X121653D02*
D03*
X149803Y139173D02*
D03*
X212500Y160531D02*
D03*
X230413Y152461D02*
D03*
X168405Y160531D02*
D03*
X207382Y160531D02*
D03*
X220177Y174016D02*
D03*
X225295D02*
D03*
X203937Y167717D02*
D03*
X181201Y162992D02*
D03*
X164173Y167717D02*
D03*
X64567Y117717D02*
D03*
X3937Y150787D02*
D03*
Y138976D02*
D03*
Y109843D02*
D03*
Y79921D02*
D03*
Y62992D02*
D03*
Y43307D02*
D03*
Y23622D02*
D03*
X240158Y205906D02*
D03*
X220472D02*
D03*
X200787D02*
D03*
X181102D02*
D03*
X161417D02*
D03*
X141732D02*
D03*
X122047D02*
D03*
X102362D02*
D03*
X82677D02*
D03*
X43307D02*
D03*
X255906Y198425D02*
D03*
Y183071D02*
D03*
Y163386D02*
D03*
X266142Y148031D02*
D03*
Y119685D02*
D03*
Y81102D02*
D03*
Y36220D02*
D03*
Y16535D02*
D03*
X255906Y3937D02*
D03*
X240158D02*
D03*
X220472D02*
D03*
X200787D02*
D03*
X181102D02*
D03*
X161417D02*
D03*
X141732D02*
D03*
X102362D02*
D03*
X82677D02*
D03*
X62992D02*
D03*
X43307D02*
D03*
X23622D02*
D03*
X3937D02*
D03*
X164567Y35433D02*
D03*
X24803Y25197D02*
D03*
X266929Y100000D02*
D03*
X182283Y25984D02*
D03*
X176772Y35433D02*
D03*
X145669Y41732D02*
D03*
X140945Y43701D02*
D03*
X133661Y36417D02*
D03*
X142913Y25591D02*
D03*
X127118Y27118D02*
D03*
X130000Y25197D02*
D03*
X221260Y35433D02*
D03*
Y51181D02*
D03*
X179921Y118110D02*
D03*
X182283Y125591D02*
D03*
X187795Y112599D02*
D03*
X183465Y110630D02*
D03*
X124409Y113779D02*
D03*
X72047Y102362D02*
D03*
X155118Y144095D02*
D03*
X20866Y141732D02*
D03*
X57480Y172441D02*
D03*
X29921Y156693D02*
D03*
X238386Y97638D02*
D03*
X77165Y105905D02*
D03*
X74803Y108661D02*
D03*
X129921Y102756D02*
D03*
X62598Y55905D02*
D03*
X38583Y151181D02*
D03*
X20079Y156299D02*
D03*
X235827Y159055D02*
D03*
X197244Y112598D02*
D03*
X192913Y111811D02*
D03*
X200000Y110236D02*
D03*
X178347Y124803D02*
D03*
X119685Y43307D02*
D03*
X63779Y66535D02*
D03*
X107087Y70472D02*
D03*
Y67323D02*
D03*
X5118Y70079D02*
D03*
X74410Y44488D02*
D03*
X103543Y58268D02*
D03*
Y54331D02*
D03*
X68504Y58661D02*
D03*
Y54724D02*
D03*
X63779Y9055D02*
D03*
X69291D02*
D03*
X66535Y13780D02*
D03*
X63779Y18504D02*
D03*
X69291D02*
D03*
X212205Y125591D02*
D03*
X91338Y136614D02*
D03*
X120472Y176772D02*
D03*
X201181Y130315D02*
D03*
X212204Y111417D02*
D03*
X212205Y116142D02*
D03*
X201181Y116535D02*
D03*
X212205Y120866D02*
D03*
X191338Y133071D02*
D03*
X120866Y143701D02*
D03*
X118110Y146063D02*
D03*
X100000Y173228D02*
D03*
X85039Y137795D02*
D03*
X122441Y117323D02*
D03*
X165354Y90551D02*
D03*
X193701Y130315D02*
D03*
X114173Y47244D02*
D03*
Y39370D02*
D03*
Y31496D02*
D03*
X107087D02*
D03*
Y39370D02*
D03*
Y47244D02*
D03*
X138976Y153543D02*
D03*
X92126Y121260D02*
D03*
X61811Y109843D02*
D03*
X117717Y140945D02*
D03*
X129528D02*
D03*
X136221Y145276D02*
D03*
X138583Y148425D02*
D03*
X134252Y138583D02*
D03*
X159449Y111417D02*
D03*
Y106693D02*
D03*
X162205Y109055D02*
D03*
Y113779D02*
D03*
X184646Y129921D02*
D03*
X188583D02*
D03*
X198425Y127559D02*
D03*
X199213Y124016D02*
D03*
X206693Y138189D02*
D03*
X165354Y102362D02*
D03*
X168898D02*
D03*
X196850Y103150D02*
D03*
X194095Y107874D02*
D03*
X191339Y105512D02*
D03*
X220473Y82677D02*
D03*
Y59055D02*
D03*
Y66929D02*
D03*
Y74803D02*
D03*
X165354Y82677D02*
D03*
X47244Y133858D02*
D03*
X37402Y174803D02*
D03*
X41732Y175197D02*
D03*
X48031Y176378D02*
D03*
X44685Y172638D02*
D03*
X29921Y177559D02*
D03*
X24803Y180709D02*
D03*
X38189Y195669D02*
D03*
X28740Y59842D02*
D03*
Y110236D02*
D03*
X34252Y144095D02*
D03*
X104331Y163779D02*
D03*
Y168898D02*
D03*
X40157Y107087D02*
D03*
X76378Y121653D02*
D03*
X81102D02*
D03*
X76378Y132677D02*
D03*
X81102D02*
D03*
X60236Y119291D02*
D03*
X54724Y124409D02*
D03*
X57874D02*
D03*
X57874Y84645D02*
D03*
X53150Y79134D02*
D03*
X42913Y79528D02*
D03*
X49213Y81496D02*
D03*
X64173Y96063D02*
D03*
Y98819D02*
D03*
Y106299D02*
D03*
X21260Y181890D02*
D03*
X27500Y183012D02*
D03*
X126772Y117520D02*
D03*
X111417Y114567D02*
D03*
X118504Y117520D02*
D03*
X111417Y131496D02*
D03*
X130512Y170276D02*
D03*
X134449D02*
D03*
X138386D02*
D03*
X178642Y160531D02*
D03*
X176083Y162992D02*
D03*
X183760Y150000D02*
D03*
X149803Y143110D02*
D03*
X141732Y145079D02*
D03*
Y141142D02*
D03*
X151969Y158661D02*
D03*
X173524Y160531D02*
D03*
X157087Y176378D02*
D03*
X161024D02*
D03*
X145276D02*
D03*
X149213Y183071D02*
D03*
X185827Y174409D02*
D03*
X190551D02*
D03*
X74803Y114567D02*
D03*
X34055Y82480D02*
D03*
X70866Y74016D02*
D03*
X5512Y96850D02*
D03*
X21260Y104331D02*
D03*
X46850Y137795D02*
D03*
X38189Y129134D02*
D03*
X36614Y133858D02*
D03*
X258661Y155118D02*
D03*
X235039Y135433D02*
D03*
X234646Y150787D02*
D03*
X236614Y144488D02*
D03*
X239764Y146850D02*
D03*
X216535Y130709D02*
D03*
X219291Y128347D02*
D03*
X235433Y140157D02*
D03*
X221654D02*
D03*
X63779Y164567D02*
D03*
X49213Y98032D02*
D03*
X52165Y99410D02*
D03*
X46260D02*
D03*
Y96653D02*
D03*
X52165D02*
D03*
M02*
