G04 Layer_Color=128*
%FSLAX25Y25*%
%MOIN*%
G70*
G01*
G75*
%ADD11R,0.02559X0.03347*%
%ADD12R,0.03347X0.02559*%
%ADD78R,0.03347X0.04331*%
%ADD80R,0.07874X0.06299*%
D11*
X244291Y130709D02*
D03*
X238386D02*
D03*
Y140157D02*
D03*
X244291D02*
D03*
X209646Y135039D02*
D03*
X203740D02*
D03*
X232480Y130709D02*
D03*
X226575D02*
D03*
X238386Y135433D02*
D03*
X244291D02*
D03*
X209646Y130315D02*
D03*
X203740D02*
D03*
X232480Y125984D02*
D03*
X226575D02*
D03*
X238386Y125984D02*
D03*
X244291D02*
D03*
X209646Y125591D02*
D03*
X203740D02*
D03*
X232480Y140157D02*
D03*
X226575D02*
D03*
X209646Y120866D02*
D03*
X203740D02*
D03*
X232480Y135433D02*
D03*
X226575D02*
D03*
X209646Y116142D02*
D03*
X203740D02*
D03*
X209646Y111417D02*
D03*
X203740D02*
D03*
X209646Y106693D02*
D03*
X203740D02*
D03*
X209646Y101969D02*
D03*
X203740D02*
D03*
X175787Y90551D02*
D03*
X169882D02*
D03*
X211221Y82677D02*
D03*
X217126D02*
D03*
X169882D02*
D03*
X175787D02*
D03*
X211221Y74803D02*
D03*
X217126D02*
D03*
X211221Y66929D02*
D03*
X217126D02*
D03*
X211221Y59055D02*
D03*
X217126D02*
D03*
X174213Y35433D02*
D03*
X168307D02*
D03*
X133661Y30315D02*
D03*
X139567D02*
D03*
X174213D02*
D03*
X168307D02*
D03*
X133661Y25591D02*
D03*
X139567D02*
D03*
D12*
X123622Y182874D02*
D03*
Y188779D02*
D03*
X130709Y182874D02*
D03*
Y188779D02*
D03*
X142126Y47835D02*
D03*
Y53740D02*
D03*
X207480Y182480D02*
D03*
Y188386D02*
D03*
X212598Y182480D02*
D03*
Y188386D02*
D03*
X227559Y182480D02*
D03*
Y188386D02*
D03*
X232677Y182480D02*
D03*
Y188386D02*
D03*
X179921Y188386D02*
D03*
Y182480D02*
D03*
X161811Y179724D02*
D03*
Y173819D02*
D03*
X157087Y179724D02*
D03*
Y173819D02*
D03*
X152362Y179724D02*
D03*
Y173819D02*
D03*
X147638Y179724D02*
D03*
Y173819D02*
D03*
X48425Y172638D02*
D03*
Y166732D02*
D03*
X53445Y172539D02*
D03*
Y166634D02*
D03*
X200000Y171457D02*
D03*
Y165551D02*
D03*
X195276Y171457D02*
D03*
Y165551D02*
D03*
X190551Y171457D02*
D03*
Y165551D02*
D03*
X185827Y171457D02*
D03*
Y165551D02*
D03*
X112992Y92323D02*
D03*
Y86417D02*
D03*
X118110Y92244D02*
D03*
Y86339D02*
D03*
X38189Y125000D02*
D03*
Y119095D02*
D03*
D78*
X101870Y124409D02*
D03*
X94980D02*
D03*
X101870Y31496D02*
D03*
X94980D02*
D03*
X101870Y39370D02*
D03*
X94980D02*
D03*
X101870Y47244D02*
D03*
X94980D02*
D03*
X101870Y85039D02*
D03*
X94980D02*
D03*
D80*
X50000Y144095D02*
D03*
X28740D02*
D03*
X50000Y64961D02*
D03*
X28740D02*
D03*
X50000Y104724D02*
D03*
X28740D02*
D03*
M02*
