G04 Layer_Physical_Order=2*
G04 Layer_Color=32768*
%FSLAX25Y25*%
%MOIN*%
G70*
G01*
G75*
%ADD71C,0.04000*%
%ADD72C,0.16598*%
%ADD73C,0.07543*%
%ADD74C,0.11087*%
%ADD75C,0.10299*%
G04:AMPARAMS|DCode=76|XSize=95.433mil|YSize=95.433mil|CornerRadius=0mil|HoleSize=0mil|Usage=FLASHONLY|Rotation=0.000|XOffset=0mil|YOffset=0mil|HoleType=Round|Shape=Relief|Width=10mil|Gap=10mil|Entries=4|*
%AMTHD76*
7,0,0,0.09543,0.07543,0.01000,45*
%
%ADD76THD76*%
%ADD77C,0.05181*%
D71*
X0Y0D02*
X260000D01*
Y5000D01*
X270000Y15000D01*
Y150000D01*
X260000Y160000D02*
X270000Y150000D01*
X260000Y160000D02*
Y200000D01*
X250000Y210000D02*
X260000Y200000D01*
X0Y210000D02*
X250000D01*
X0Y0D02*
Y210000D01*
D72*
X60000Y200000D02*
D03*
X55000Y10000D02*
D03*
X260000Y140000D02*
D03*
Y30000D02*
D03*
D73*
X10236Y100787D02*
D03*
Y127559D02*
D03*
X14567Y151969D02*
D03*
X250000Y10000D02*
D03*
X200000D02*
D03*
X210000D02*
D03*
X220000D02*
D03*
X230000D02*
D03*
X240000D02*
D03*
X250551Y99803D02*
D03*
X260551Y109803D02*
D03*
X250551D02*
D03*
X260551Y119803D02*
D03*
X250551D02*
D03*
X74000Y200000D02*
D03*
X84000D02*
D03*
X164000D02*
D03*
X154000D02*
D03*
X144000D02*
D03*
X134000D02*
D03*
X124000D02*
D03*
X114000D02*
D03*
X94000D02*
D03*
X250000D02*
D03*
X240000D02*
D03*
X230000D02*
D03*
X220000D02*
D03*
X210000D02*
D03*
X200000D02*
D03*
X190000D02*
D03*
X180000D02*
D03*
Y10000D02*
D03*
X150000D02*
D03*
X140000D02*
D03*
X130000D02*
D03*
X120000D02*
D03*
X110000D02*
D03*
D74*
X32874Y47638D02*
D03*
D75*
X15157D02*
D03*
D76*
X14567Y141969D02*
D03*
X260551Y99803D02*
D03*
X104000Y200000D02*
D03*
X170000Y10000D02*
D03*
X160000D02*
D03*
D77*
X118504Y179921D02*
D03*
X119685Y190157D02*
D03*
X128740Y191732D02*
D03*
X127165Y182677D02*
D03*
X135433Y176378D02*
D03*
X131889Y176378D02*
D03*
X240945Y135433D02*
D03*
X235039Y125984D02*
D03*
Y130709D02*
D03*
X240945D02*
D03*
X103937Y133071D02*
D03*
X191339Y162205D02*
D03*
X200000D02*
D03*
X179921Y152461D02*
D03*
X112205Y51968D02*
D03*
X142126Y57480D02*
D03*
X124016Y43307D02*
D03*
X129921Y72835D02*
D03*
X124016Y82284D02*
D03*
X112992Y82284D02*
D03*
X118110D02*
D03*
X112598Y111024D02*
D03*
X120866Y148425D02*
D03*
X96850Y148031D02*
D03*
X97638Y166929D02*
D03*
X209842Y140157D02*
D03*
X219291Y148425D02*
D03*
X212598Y150000D02*
D03*
X220177Y152461D02*
D03*
X215059D02*
D03*
X227854Y150000D02*
D03*
X222736D02*
D03*
X196850Y147638D02*
D03*
X193307D02*
D03*
X94882Y136152D02*
D03*
X120472Y138583D02*
D03*
X165748Y146457D02*
D03*
X196063Y187795D02*
D03*
X53543Y163386D02*
D03*
X89370Y117717D02*
D03*
X86221Y111417D02*
D03*
X96457Y114173D02*
D03*
X92126D02*
D03*
X140551Y162204D02*
D03*
X135433Y161417D02*
D03*
X134252Y157874D02*
D03*
X21298Y190120D02*
D03*
X21260Y186614D02*
D03*
X125591Y161811D02*
D03*
X121653D02*
D03*
X149803Y139173D02*
D03*
X212500Y160531D02*
D03*
X230413Y152461D02*
D03*
X220177Y174016D02*
D03*
X225295D02*
D03*
X181201Y162992D02*
D03*
X64567Y117717D02*
D03*
X164567Y35433D02*
D03*
X176772Y35433D02*
D03*
X133661Y36417D02*
D03*
X142913Y25591D02*
D03*
X127118Y27118D02*
D03*
X130000Y25197D02*
D03*
X179921Y118110D02*
D03*
X182283Y125591D02*
D03*
X187795Y112599D02*
D03*
X183465Y110630D02*
D03*
X124409Y113779D02*
D03*
X72047Y102362D02*
D03*
X155118Y144095D02*
D03*
X57480Y172441D02*
D03*
X29921Y156693D02*
D03*
X238386Y97638D02*
D03*
X77165Y105905D02*
D03*
X74803Y108661D02*
D03*
X129921Y102756D02*
D03*
X62598Y55905D02*
D03*
X20079Y156299D02*
D03*
X192913Y111811D02*
D03*
X200000Y110236D02*
D03*
X119685Y43307D02*
D03*
X63779Y66535D02*
D03*
X107087Y70472D02*
D03*
Y67323D02*
D03*
X5118Y70079D02*
D03*
X74410Y44488D02*
D03*
X212205Y125591D02*
D03*
X91338Y136614D02*
D03*
X201181Y130315D02*
D03*
X212204Y111417D02*
D03*
X201181Y116535D02*
D03*
X212205Y120866D02*
D03*
X191338Y133071D02*
D03*
X120866Y143701D02*
D03*
X118110Y146063D02*
D03*
X100000Y173228D02*
D03*
X85039Y137795D02*
D03*
X122441Y117323D02*
D03*
X165354Y90551D02*
D03*
X107087Y31496D02*
D03*
Y39370D02*
D03*
Y47244D02*
D03*
X138976Y153543D02*
D03*
X92126Y121260D02*
D03*
X61811Y109843D02*
D03*
X117717Y140945D02*
D03*
X129528D02*
D03*
X136221Y145276D02*
D03*
X138583Y148425D02*
D03*
X134252Y138583D02*
D03*
X159449Y111417D02*
D03*
Y106693D02*
D03*
X162205Y109055D02*
D03*
Y113779D02*
D03*
X184646Y129921D02*
D03*
X199213Y124016D02*
D03*
X206693Y138189D02*
D03*
X165354Y102362D02*
D03*
X168898D02*
D03*
X196850Y103150D02*
D03*
X194095Y107874D02*
D03*
X191339Y105512D02*
D03*
X220473Y82677D02*
D03*
Y59055D02*
D03*
Y66929D02*
D03*
Y74803D02*
D03*
X165354Y82677D02*
D03*
X47244Y133858D02*
D03*
X37402Y174803D02*
D03*
X48031Y176378D02*
D03*
X44685Y172638D02*
D03*
X24803Y180709D02*
D03*
X104331Y163779D02*
D03*
Y168898D02*
D03*
X40157Y107087D02*
D03*
X76378Y132677D02*
D03*
X81102D02*
D03*
X60236Y119291D02*
D03*
X57874Y84645D02*
D03*
X64173Y106299D02*
D03*
X130512Y170276D02*
D03*
X134449D02*
D03*
X138386D02*
D03*
X178642Y160531D02*
D03*
X176083Y162992D02*
D03*
X183760Y150000D02*
D03*
X149803Y143110D02*
D03*
X141732Y145079D02*
D03*
Y141142D02*
D03*
X151969Y158661D02*
D03*
X173524Y160531D02*
D03*
X157087Y176378D02*
D03*
X161024D02*
D03*
X145276D02*
D03*
X149213Y183071D02*
D03*
X185827Y174409D02*
D03*
X190551D02*
D03*
X74803Y114567D02*
D03*
X34055Y82480D02*
D03*
X70866Y74016D02*
D03*
X5512Y96850D02*
D03*
X21260Y104331D02*
D03*
X46850Y137795D02*
D03*
X38189Y129134D02*
D03*
X36614Y133858D02*
D03*
X235039Y135433D02*
D03*
X234646Y150787D02*
D03*
X236614Y144488D02*
D03*
X239764Y146850D02*
D03*
X216535Y130709D02*
D03*
X219291Y128347D02*
D03*
X235433Y140157D02*
D03*
X221654D02*
D03*
X63779Y164567D02*
D03*
M02*
