G04 Layer_Physical_Order=4*
G04 Layer_Color=255*
%FSLAX25Y25*%
%MOIN*%
G70*
G01*
G75*
%ADD10C,0.00591*%
%ADD11R,0.02559X0.03347*%
%ADD12R,0.03347X0.02559*%
%ADD36C,0.03937*%
%ADD57C,0.00787*%
%ADD58C,0.01181*%
%ADD59C,0.02953*%
%ADD60C,0.01968*%
%ADD61C,0.03937*%
%ADD62C,0.12598*%
%ADD63C,0.03543*%
%ADD64C,0.07087*%
%ADD65C,0.06299*%
%ADD66C,0.05905*%
%ADD67R,0.05905X0.05905*%
%ADD68R,0.05905X0.05905*%
%ADD69C,0.02756*%
%ADD70C,0.01575*%
%ADD78R,0.03347X0.04331*%
%ADD79R,0.03937X0.03937*%
%ADD80R,0.07874X0.06299*%
D10*
X119685Y190157D02*
X121063Y188779D01*
X123622D01*
X130709D02*
Y190551D01*
X129528Y191732D02*
X130709Y190551D01*
X128740Y191732D02*
X129528D01*
X142074Y189764D02*
X167323D01*
X128248Y168996D02*
Y175938D01*
X142074Y189764D01*
X143255Y185827D02*
X155118D01*
X135433Y176378D02*
Y178005D01*
X143255Y185827D01*
X142913Y187402D02*
X158268D01*
X131889Y176378D02*
X142913Y187402D01*
X155118Y185827D02*
X157087Y183858D01*
X137598Y176378D02*
X144291Y169685D01*
X135433Y176378D02*
X137598D01*
X131889Y176378D02*
X135432Y172835D01*
X244291Y130709D02*
Y135433D01*
X103937Y131693D02*
Y133071D01*
X103937Y131693D02*
X103937Y131693D01*
X103937Y131693D02*
X103937Y131693D01*
X190551Y171457D02*
Y174409D01*
X185827Y169685D02*
Y171457D01*
Y174409D01*
X198819D02*
X200000Y173228D01*
X190551Y174409D02*
X198819D01*
X200000Y172244D02*
Y173228D01*
X195276Y169291D02*
Y172244D01*
X194882Y168898D02*
X195276Y169291D01*
X186614Y168898D02*
X194882D01*
X185827Y169685D02*
X186614Y168898D01*
X200000Y162205D02*
Y165354D01*
X196260D02*
X200000D01*
X195276Y166339D02*
X196260Y165354D01*
X186713Y165453D02*
X191437D01*
X185827Y166339D02*
X186713Y165453D01*
X191339Y162205D02*
Y165354D01*
X191437Y165453D01*
X169980Y152461D02*
X179921D01*
X167717Y154724D02*
X169980Y152461D01*
X163386Y154724D02*
X167717D01*
X130315Y148819D02*
Y164961D01*
X125984Y169291D02*
X130315Y164961D01*
X125984Y169291D02*
Y175984D01*
Y144488D02*
X130315Y148819D01*
X128248Y168996D02*
X131496Y165748D01*
Y147244D02*
Y165748D01*
X127165Y142913D02*
X131496Y147244D01*
X104331Y159449D02*
Y163779D01*
X87303Y142421D02*
X104331Y159449D01*
X87303Y135728D02*
Y142421D01*
X79528Y144095D02*
X104331Y168898D01*
X59842Y144095D02*
X79528D01*
X170472Y150000D02*
X183760D01*
X166929Y153543D02*
X170472Y150000D01*
X162897Y153543D02*
X166929D01*
X170866Y147638D02*
X185433D01*
X166142Y152362D02*
X170866Y147638D01*
X162407Y152362D02*
X166142D01*
X165450Y151181D02*
X170174Y146457D01*
X161918Y151181D02*
X165450D01*
X170174Y146457D02*
X186221D01*
X169685Y145276D02*
X187008D01*
X168504Y146457D02*
X169685Y145276D01*
X165748Y146457D02*
X168504D01*
X94980Y50098D02*
X96850Y51968D01*
X112205D01*
X94980Y47244D02*
Y50098D01*
X96063Y43307D02*
X119685D01*
X94980Y42224D02*
X96063Y43307D01*
X94980Y39370D02*
Y42224D01*
X96063Y35433D02*
X124016D01*
X94980Y34350D02*
X96063Y35433D01*
X94980Y31496D02*
Y34350D01*
X129921Y72835D02*
Y102756D01*
Y25276D02*
Y72835D01*
X118110Y82284D02*
Y86339D01*
X112992Y82284D02*
Y86417D01*
X114961Y125197D02*
X122835Y133071D01*
X112992Y92323D02*
Y94882D01*
X115748Y97638D01*
Y113779D01*
X114961Y114567D02*
X115748Y113779D01*
X114961Y114567D02*
Y125197D01*
X116240Y122539D02*
X124016Y130315D01*
X118110Y92244D02*
Y114567D01*
X116240Y116437D02*
X118110Y114567D01*
X116240Y116437D02*
Y122539D01*
X124016Y130315D02*
Y144882D01*
X122835Y146063D02*
X124016Y144882D01*
X118110Y146063D02*
X122835D01*
Y133071D02*
Y141732D01*
X120866Y143701D02*
X122835Y141732D01*
X101870Y129626D02*
X103937Y131693D01*
X101870Y124409D02*
Y129626D01*
X99675Y140945D02*
X117717D01*
X94882Y136152D02*
X99675Y140945D01*
X209646Y135039D02*
X209842Y135236D01*
Y140157D01*
X209646Y130315D02*
Y135039D01*
X210236Y147638D02*
X216535D01*
X207874Y150000D02*
X210236Y147638D01*
X191732Y150000D02*
X207874D01*
X217323Y148425D02*
X219291D01*
X216535Y147638D02*
X217323Y148425D01*
X211417Y151181D02*
X212598Y150000D01*
X190945Y151181D02*
X211417D01*
X220177Y152461D02*
X223917D01*
X225000Y151378D01*
X190256Y152461D02*
X215059D01*
X226476Y148622D02*
X227854Y150000D01*
X229134Y147638D02*
X230413Y148917D01*
X227165Y147638D02*
X229134D01*
X222047Y142520D02*
X227165Y147638D01*
X222736Y148327D02*
Y150000D01*
X221069Y144882D02*
X225000Y148813D01*
Y151378D01*
X226476Y148619D02*
Y148622D01*
X221558Y143701D02*
X226476Y148619D01*
X186221Y146457D02*
X190945Y151181D01*
X187008Y145276D02*
X191732Y150000D01*
X192126Y142913D02*
X196850Y147638D01*
X192913D02*
X193307D01*
X200000Y146063D02*
X220472D01*
X200489Y144882D02*
X221069D01*
X201181Y143701D02*
X221558D01*
X201969Y142520D02*
X222047D01*
X220472Y146063D02*
X222736Y148327D01*
X102362Y180709D02*
Y181378D01*
Y180709D02*
X102756Y180315D01*
X101969Y181772D02*
X102362Y181378D01*
X102756Y180315D02*
X103543D01*
X103937Y181378D02*
X104331Y181772D01*
X103543Y180315D02*
X103937Y180709D01*
Y181378D01*
X104331Y181772D02*
X106417D01*
X51299D02*
X101969D01*
X96063Y133465D02*
X101181Y138583D01*
X93701Y133465D02*
X96063D01*
X101181Y138583D02*
X120472D01*
X129528Y140945D02*
X135091D01*
X136516Y139520D01*
Y139469D02*
X159449Y116535D01*
X136516Y139469D02*
Y139520D01*
X159449Y116535D02*
X170854D01*
X141483Y138189D02*
X147586D01*
X139370Y140302D02*
X141483Y138189D01*
X139370Y140302D02*
Y142717D01*
X147586Y138189D02*
X148865Y136909D01*
X164961Y146457D02*
X165748D01*
X163779Y141732D02*
X195669D01*
X158268Y147244D02*
X163779Y141732D01*
X164269Y142913D02*
X192126D01*
X164758Y144095D02*
X189370D01*
X159246Y149606D02*
X164758Y144095D01*
X158757Y149606D02*
X159246D01*
X158757Y149606D02*
X158757Y149606D01*
X139764Y149606D02*
X158757D01*
Y148425D02*
X164269Y142913D01*
X158268Y148425D02*
X158757D01*
X158268Y148425D02*
X158268Y148425D01*
X141784Y148425D02*
X158268D01*
X147835Y147244D02*
X158268D01*
X157874Y153543D02*
X164961Y146457D01*
X154438Y158661D02*
X161918Y151181D01*
X153844Y160925D02*
X162407Y152362D01*
X154334Y162106D02*
X162897Y153543D01*
X154823Y163287D02*
X163386Y154724D01*
X155214Y164567D02*
X163875Y155905D01*
X207874D01*
X155905Y165748D02*
X164567Y157087D01*
X179134D01*
X138976Y153543D02*
X157874D01*
X151969Y158661D02*
X154438D01*
X151031Y160925D02*
X153844D01*
X150295Y162106D02*
X154334D01*
X141634Y163287D02*
X154823D01*
X136221Y164567D02*
X155214D01*
X138976Y165748D02*
X155905D01*
X165354Y158268D02*
X176378D01*
X156693Y166929D02*
X165354Y158268D01*
X141732Y166929D02*
X156693D01*
X53445Y163484D02*
X53543Y163386D01*
X53445Y163484D02*
Y166634D01*
X89370Y129134D02*
X93701Y133465D01*
X89370Y117717D02*
Y129134D01*
X86221Y111417D02*
Y131496D01*
X84646Y113386D02*
Y133071D01*
X77165Y105905D02*
X84646Y113386D01*
X86221Y131496D02*
X91338Y136614D01*
X84646Y133071D02*
X87303Y135728D01*
X92126Y121260D02*
X94980Y124114D01*
Y124409D01*
X101969Y86122D02*
Y108661D01*
X96457Y114173D02*
X101969Y108661D01*
Y86122D02*
X103051Y85039D01*
X140551Y162204D02*
X141634Y163287D01*
X136910Y159941D02*
X148130D01*
X135433Y161417D02*
X136910Y159941D01*
X148130D02*
X150295Y162106D01*
X134252Y157874D02*
X148031D01*
X149705Y159547D01*
X134449Y170276D02*
X138976Y165748D01*
X138386Y170276D02*
X141732Y166929D01*
X143701Y168504D02*
X157480D01*
X139370Y172835D02*
X143701Y168504D01*
X144291Y169685D02*
X158661D01*
X130512Y170276D02*
X136221Y164567D01*
X51837Y183071D02*
X106956D01*
X111929Y178097D01*
X21298Y190120D02*
X22382Y189035D01*
X45873D01*
X21298Y190120D02*
X21298D01*
X45873Y189035D02*
X51837Y183071D01*
X22382Y187736D02*
X45335D01*
X51299Y181772D01*
X21260Y186614D02*
X22382Y187736D01*
X111929Y178097D02*
X124272Y165755D01*
Y163130D02*
Y165755D01*
X106417Y181772D02*
X122972Y165217D01*
Y163130D02*
Y165217D01*
X124272Y163130D02*
X125591Y161811D01*
X121653D02*
X122972Y163130D01*
X147539Y141437D02*
X149803Y139173D01*
X173721Y165354D02*
X176083Y162992D01*
X169882Y164173D02*
X173524Y160531D01*
X230413Y148917D02*
Y152461D01*
X207874Y155905D02*
X212500Y160531D01*
X157480Y168504D02*
X161811Y164173D01*
X169882D01*
X162992Y165354D02*
X173721D01*
X181201Y159153D02*
Y162992D01*
X179134Y157087D02*
X181201Y159153D01*
X176378Y158268D02*
X178642Y160531D01*
X152020Y138189D02*
X197638D01*
X150741Y136909D02*
X152020Y138189D01*
X148865Y136909D02*
X150741D01*
X197638Y138189D02*
X201969Y142520D01*
X196850Y139370D02*
X201181Y143701D01*
X153543Y139370D02*
X196850D01*
X149803Y143110D02*
X153543Y139370D01*
X196159Y140551D02*
X200489Y144882D01*
X155118Y140551D02*
X196159D01*
X152854Y142815D02*
X155118Y140551D01*
X195669Y141732D02*
X200000Y146063D01*
X189370Y144095D02*
X192913Y147638D01*
X185433D02*
X190256Y152461D01*
X260551Y109803D02*
X260984Y110236D01*
X266929D01*
X250354Y100000D02*
X250551Y99803D01*
X244094Y100000D02*
X250354D01*
X250118Y110236D02*
X250551Y109803D01*
X244094Y110236D02*
X250118D01*
X250433Y119685D02*
X250551Y119803D01*
X244094Y119685D02*
X250433D01*
X129921Y25276D02*
X130000Y25197D01*
X187795Y112599D02*
X187795Y112599D01*
X127118Y113732D02*
X129528Y116142D01*
X127118Y27118D02*
Y113732D01*
X158661Y169685D02*
X162992Y165354D01*
X48031Y176378D02*
X56744D01*
X61469Y171653D01*
X98425D01*
X53544Y172441D02*
X57480D01*
X53445Y172539D02*
X53544Y172441D01*
X98425Y171653D02*
X100000Y173228D01*
X74803Y108661D02*
Y114567D01*
X129921Y102756D02*
X130000Y102677D01*
X192913Y111811D02*
X194488D01*
X196457Y109843D01*
X200000Y108268D02*
Y110236D01*
X196457Y107480D02*
Y109843D01*
Y107480D02*
X201969Y101969D01*
X187795Y124016D02*
X199213D01*
X183858D02*
X187795D01*
Y112599D02*
Y124016D01*
X182283Y125591D02*
X183858Y124016D01*
X62205Y64961D02*
X63779Y66535D01*
X254370Y125984D02*
X260551Y119803D01*
X244291Y125984D02*
X254370D01*
X244291Y135433D02*
Y140157D01*
Y125984D02*
Y130709D01*
X201181Y130315D02*
X203740D01*
X201181Y130315D02*
X201181Y130315D01*
X216535Y109843D02*
Y130709D01*
X213386Y106693D02*
X216535Y109843D01*
X157087Y105854D02*
Y115748D01*
X134252Y138583D02*
X157087Y115748D01*
X209646Y101969D02*
X213779D01*
X209646Y106693D02*
X213386D01*
X191338Y133071D02*
X199606D01*
X201575Y135039D01*
X203740D01*
X122441Y117323D02*
X125984Y120866D01*
Y144488D01*
X129528Y116142D02*
Y132677D01*
X127165Y135039D02*
X129528Y132677D01*
X127165Y135039D02*
Y142913D01*
X107968Y194000D02*
X125984Y175984D01*
X94000Y194000D02*
X107968D01*
X135432Y172835D02*
X139370D01*
X50000Y144095D02*
X59842D01*
X50787Y109843D02*
X61811D01*
X50000Y109055D02*
X50787Y109843D01*
X136221Y145276D02*
X138635D01*
X170854Y116535D02*
X191339Y96051D01*
X157087Y105854D02*
X158609Y104331D01*
X161417D01*
X161811Y104724D01*
X174016D01*
Y106693D02*
X185039Y95669D01*
X159449Y106693D02*
X174016D01*
X159449Y111417D02*
X172632D01*
X188189Y95860D01*
X173324Y109055D02*
X186614Y95765D01*
X162205Y109055D02*
X173324D01*
X162205Y113779D02*
X171940D01*
X189764Y95956D01*
X167323Y189764D02*
X174606Y182480D01*
X179921D01*
X202165Y124016D02*
X203740Y125591D01*
X199213Y124016D02*
X202165D01*
X203740Y120866D02*
Y125591D01*
X208957Y82677D02*
X211221D01*
X206693Y84941D02*
Y138189D01*
Y84941D02*
X208957Y82677D01*
X172835Y83858D02*
Y94882D01*
X165354Y102362D02*
X172835Y94882D01*
X174016Y104724D02*
X183071Y95669D01*
X172835Y83858D02*
X174016Y82677D01*
X175787D01*
X168898Y102362D02*
X175787Y95473D01*
Y90551D02*
Y95473D01*
X203543Y77953D02*
Y92126D01*
X196850Y98819D02*
X203543Y92126D01*
X196850Y98819D02*
Y103150D01*
X201969Y71653D02*
Y91732D01*
X194095Y99606D02*
X201969Y91732D01*
X194095Y99606D02*
Y107874D01*
X200394Y65354D02*
Y91339D01*
X191339Y100394D02*
Y105512D01*
Y100394D02*
X200394Y91339D01*
X201969Y101969D02*
X203740D01*
Y111417D02*
Y116142D01*
X200000Y108268D02*
X201575Y106693D01*
X203740D01*
X217126Y82677D02*
X217126Y82677D01*
X220473D01*
X217126Y74803D02*
X217126Y74803D01*
X220473D01*
X217126Y66929D02*
X220473D01*
X217126Y59055D02*
X217126Y59055D01*
X220473D01*
X220472Y59055D02*
X220473Y59055D01*
X220472Y66929D02*
X220473Y66929D01*
X220472Y74803D02*
X220473Y74803D01*
X165354Y82677D02*
X169882D01*
X165354Y82677D02*
X165354Y82677D01*
X165354Y90551D02*
X165354Y90551D01*
X169882D01*
X24803Y180709D02*
X43701D01*
X48031Y176378D01*
X44685Y172638D02*
X48425D01*
X53347Y166732D02*
X53445Y166634D01*
X48425Y166732D02*
X53347D01*
X50000Y104724D02*
Y109055D01*
Y64961D02*
X62205D01*
X152854Y142815D02*
Y143799D01*
X200394Y65354D02*
X206693Y59055D01*
X211221D01*
X201969Y71653D02*
X206693Y66929D01*
X211221D01*
X203543Y77953D02*
X206693Y74803D01*
X211221D01*
X191339Y48031D02*
Y96051D01*
Y48031D02*
X214173Y25197D01*
X240803D01*
X250000Y16000D01*
X189764Y46457D02*
Y95956D01*
Y46457D02*
X212598Y23622D01*
X232378D01*
X240000Y16000D01*
X188189Y44882D02*
Y95860D01*
Y44882D02*
X211024Y22047D01*
X223953D01*
X230000Y16000D01*
X186614Y43307D02*
Y95765D01*
Y43307D02*
X209449Y20472D01*
X215528D01*
X220000Y16000D01*
X185039Y40961D02*
Y95669D01*
Y40961D02*
X210000Y16000D01*
X183071Y32929D02*
Y95669D01*
Y32929D02*
X200000Y16000D01*
X94000Y194000D02*
Y200000D01*
X250000Y10000D02*
Y16000D01*
X240000Y10000D02*
Y16000D01*
X230000Y10000D02*
Y16000D01*
X220000Y10000D02*
Y16000D01*
X210000Y10000D02*
Y16000D01*
X200000Y10000D02*
Y16000D01*
X110000Y10000D02*
Y16000D01*
X147539Y141437D02*
Y144390D01*
X139370Y142717D02*
X141732Y145079D01*
X149705Y159547D02*
Y159599D01*
X151031Y160925D01*
X147638Y173819D02*
X152362D01*
X145276Y176181D02*
X147638Y173819D01*
X145276Y176181D02*
Y176378D01*
X152362Y179724D02*
Y181890D01*
X151181Y183071D02*
X152362Y181890D01*
X149213Y183071D02*
X151181D01*
X157087Y179724D02*
Y183858D01*
X161811Y179724D02*
Y183858D01*
X158268Y187402D02*
X161811Y183858D01*
X34055Y82480D02*
Y110827D01*
X147539Y144390D02*
X148819Y145669D01*
X150984D01*
X152854Y143799D01*
X138583Y148425D02*
X139764Y149606D01*
X138635Y145276D02*
X141784Y148425D01*
X141732Y141142D02*
X147835Y147244D01*
X30217Y114665D02*
X34055Y110827D01*
X46850Y137795D02*
X85039D01*
X30217Y114665D02*
Y127461D01*
X36614Y133858D01*
X226575Y135433D02*
Y140157D01*
Y142717D01*
X234646Y150787D01*
X226575Y130709D02*
X228346D01*
X228740Y131102D01*
X226575Y125984D02*
X228740D01*
X230315Y127559D01*
Y142198D01*
X232606Y144488D01*
X236614D01*
X228740Y131102D02*
Y142913D01*
X232677Y146850D01*
X239764D01*
X213779Y101969D02*
X219291Y107480D01*
Y128347D01*
X57087Y40156D02*
Y39500D01*
X55775Y38188D01*
X54463Y39500D01*
Y40156D01*
X55775Y38188D02*
Y36220D01*
X46591Y39500D02*
X47247Y40156D01*
X48559D01*
X49215Y39500D01*
Y38844D01*
X48559Y38188D01*
X47247D01*
X46591Y37532D01*
Y36876D01*
X47247Y36220D01*
X48559D01*
X49215Y36876D01*
X44623Y36220D02*
X43312D01*
X42656Y36876D01*
Y38188D01*
X43312Y38844D01*
X44623D01*
X45279Y38188D01*
Y36876D01*
X44623Y36220D01*
X40688D02*
Y39500D01*
Y38188D01*
X41344D01*
X40032D01*
X40688D01*
Y39500D01*
X40032Y40156D01*
X37408Y39500D02*
Y38844D01*
X38064D01*
X36752D01*
X37408D01*
Y36876D01*
X36752Y36220D01*
X30848Y39500D02*
X30192Y40156D01*
X28881D01*
X28225Y39500D01*
Y36876D01*
X28881Y36220D01*
X30192D01*
X30848Y36876D01*
Y39500D01*
X26913Y36220D02*
X25601D01*
X26257D01*
Y40156D01*
X26913Y39500D01*
X23633Y36220D02*
X21009Y38844D01*
X17073Y36220D02*
X19697D01*
X17073Y38844D01*
Y39500D01*
X17729Y40156D01*
X19041D01*
X19697Y39500D01*
X15761D02*
X15105Y40156D01*
X13793D01*
X13137Y39500D01*
Y36876D01*
X13793Y36220D01*
X15105D01*
X15761Y36876D01*
Y39500D01*
X11826Y36220D02*
X10514D01*
X11170D01*
Y40156D01*
X11826Y39500D01*
X8546Y40156D02*
X5922D01*
Y39500D01*
X8546Y36876D01*
Y36220D01*
X56693Y34644D02*
X55381D01*
X56037D01*
Y30709D01*
X56693D01*
X55381D01*
X51445Y34644D02*
X52757D01*
X53413Y33988D01*
Y31365D01*
X52757Y30709D01*
X51445D01*
X50789Y31365D01*
Y33988D01*
X51445Y34644D01*
X49477D02*
X46854D01*
X48166D01*
Y30709D01*
X45542D02*
Y33332D01*
X44230Y34644D01*
X42918Y33332D01*
Y30709D01*
Y32677D01*
X45542D01*
X37670Y30709D02*
Y34644D01*
X35702D01*
X35046Y33988D01*
Y32677D01*
X35702Y32021D01*
X37670D01*
X33734Y30709D02*
X32423D01*
X33079D01*
Y34644D01*
X33734D01*
X29799Y33332D02*
X28487D01*
X27831Y32677D01*
Y30709D01*
X29799D01*
X30455Y31365D01*
X29799Y32021D01*
X27831D01*
X26519Y33332D02*
Y31365D01*
X25863Y30709D01*
X23895D01*
Y30053D01*
X24551Y29397D01*
X25207D01*
X23895Y30709D02*
Y33332D01*
X18647Y30709D02*
X17335D01*
X17991D01*
Y34644D01*
X18647Y33988D01*
X15368Y30709D02*
Y31365D01*
X14712D01*
Y30709D01*
X15368D01*
X12088D02*
X10776D01*
X11432D01*
Y34644D01*
X12088Y33988D01*
X8808Y30709D02*
Y31365D01*
X8152D01*
Y30709D01*
X8808D01*
X5528Y33988D02*
X4872Y34644D01*
X3560D01*
X2905Y33988D01*
Y31365D01*
X3560Y30709D01*
X4872D01*
X5528Y31365D01*
Y33988D01*
D11*
X244291Y130709D02*
D03*
X238386D02*
D03*
Y140157D02*
D03*
X244291D02*
D03*
X209646Y135039D02*
D03*
X203740D02*
D03*
X232480Y130709D02*
D03*
X226575D02*
D03*
X238386Y135433D02*
D03*
X244291D02*
D03*
X209646Y130315D02*
D03*
X203740D02*
D03*
X232480Y125984D02*
D03*
X226575D02*
D03*
X238386Y125984D02*
D03*
X244291D02*
D03*
X209646Y125591D02*
D03*
X203740D02*
D03*
X232480Y140157D02*
D03*
X226575D02*
D03*
X209646Y120866D02*
D03*
X203740D02*
D03*
X232480Y135433D02*
D03*
X226575D02*
D03*
X209646Y116142D02*
D03*
X203740D02*
D03*
X209646Y111417D02*
D03*
X203740D02*
D03*
X209646Y106693D02*
D03*
X203740D02*
D03*
X209646Y101969D02*
D03*
X203740D02*
D03*
X175787Y90551D02*
D03*
X169882D02*
D03*
X211221Y82677D02*
D03*
X217126D02*
D03*
X169882D02*
D03*
X175787D02*
D03*
X211221Y74803D02*
D03*
X217126D02*
D03*
X211221Y66929D02*
D03*
X217126D02*
D03*
X211221Y59055D02*
D03*
X217126D02*
D03*
X174213Y35433D02*
D03*
X168307D02*
D03*
X133661Y30315D02*
D03*
X139567D02*
D03*
X174213D02*
D03*
X168307D02*
D03*
X133661Y25591D02*
D03*
X139567D02*
D03*
D12*
X123622Y182874D02*
D03*
Y188779D02*
D03*
X130709Y182874D02*
D03*
Y188779D02*
D03*
X142126Y47835D02*
D03*
Y53740D02*
D03*
X207480Y182480D02*
D03*
Y188386D02*
D03*
X212598Y182480D02*
D03*
Y188386D02*
D03*
X227559Y182480D02*
D03*
Y188386D02*
D03*
X232677Y182480D02*
D03*
Y188386D02*
D03*
X179921Y188386D02*
D03*
Y182480D02*
D03*
X161811Y179724D02*
D03*
Y173819D02*
D03*
X157087Y179724D02*
D03*
Y173819D02*
D03*
X152362Y179724D02*
D03*
Y173819D02*
D03*
X147638Y179724D02*
D03*
Y173819D02*
D03*
X48425Y172638D02*
D03*
Y166732D02*
D03*
X53445Y172539D02*
D03*
Y166634D02*
D03*
X200000Y171457D02*
D03*
Y165551D02*
D03*
X195276Y171457D02*
D03*
Y165551D02*
D03*
X190551Y171457D02*
D03*
Y165551D02*
D03*
X185827Y171457D02*
D03*
Y165551D02*
D03*
X112992Y92323D02*
D03*
Y86417D02*
D03*
X118110Y92244D02*
D03*
Y86339D02*
D03*
X38189Y125000D02*
D03*
Y119095D02*
D03*
D36*
X107087Y67323D02*
D03*
X11811Y11811D02*
D03*
X250000Y194000D02*
D03*
X240000D02*
D03*
X230000D02*
D03*
X220000D02*
D03*
X210000D02*
D03*
X200000D02*
D03*
X190000D02*
D03*
X180000D02*
D03*
X164000D02*
D03*
X154000D02*
D03*
X144000D02*
D03*
X134000D02*
D03*
X124000D02*
D03*
X114000D02*
D03*
X94000D02*
D03*
X84000D02*
D03*
X74000D02*
D03*
X24803Y177953D02*
D03*
X37402Y174803D02*
D03*
X59842Y144095D02*
D03*
X112992Y81102D02*
D03*
X118110D02*
D03*
X20079Y156299D02*
D03*
X81102Y132677D02*
D03*
X184646Y129921D02*
D03*
X47244Y129528D02*
D03*
X58268Y120079D02*
D03*
X244094Y119685D02*
D03*
X179921Y118110D02*
D03*
X33071D02*
D03*
X67323Y117323D02*
D03*
X183465Y110630D02*
D03*
X266929Y110236D02*
D03*
X244094D02*
D03*
X64173Y106299D02*
D03*
X266929Y100000D02*
D03*
X244094D02*
D03*
X191339Y160630D02*
D03*
X200000D02*
D03*
X70866Y74016D02*
D03*
X5118Y70079D02*
D03*
X63779Y65354D02*
D03*
X74410Y44488D02*
D03*
X24803Y25197D02*
D03*
X182283Y25984D02*
D03*
X250000Y16000D02*
D03*
X240000D02*
D03*
X230000D02*
D03*
X220000D02*
D03*
X210000D02*
D03*
X200000D02*
D03*
X110000D02*
D03*
D57*
X130512Y182677D02*
X130709Y182874D01*
X127165Y182677D02*
X130512D01*
X123622Y182874D02*
X123819Y182677D01*
X127165D01*
X143898Y179724D02*
X147638D01*
X142126Y177953D02*
X143898Y179724D01*
X142126Y174016D02*
Y177953D01*
Y53740D02*
Y57480D01*
X94882Y86122D02*
Y111417D01*
X92126Y114173D02*
X94882Y111417D01*
X93799Y85039D02*
X94882Y86122D01*
X144882Y171260D02*
X176772D01*
X142126Y174016D02*
X144882Y171260D01*
X230000Y188386D02*
X232598D01*
X227874D02*
X230000D01*
Y194000D01*
X222835Y171260D02*
X230709D01*
X219980Y174114D02*
X222835Y171260D01*
X211319Y174114D02*
X219980D01*
X221850Y177165D02*
X224902Y174114D01*
X213779Y177165D02*
X221850D01*
X224902Y174114D02*
X225049Y174262D01*
X227559Y176279D02*
Y182874D01*
X225295Y174016D02*
X227559Y176279D01*
X57874Y84645D02*
X70894Y97666D01*
X179921Y174409D02*
X185827D01*
X176772Y171260D02*
X179921Y174409D01*
X103051Y31496D02*
X107087D01*
X103051Y39370D02*
X107087D01*
X103051Y47244D02*
X107087D01*
X179921Y193921D02*
X180000Y194000D01*
X179921Y188386D02*
Y193921D01*
X28740Y59842D02*
Y64961D01*
Y104724D02*
Y110236D01*
Y144095D02*
X34252D01*
X232283Y182874D02*
X233071Y182087D01*
Y173622D02*
Y182087D01*
X230709Y171260D02*
X233071Y173622D01*
X207874Y177559D02*
X211319Y174114D01*
X207874Y177559D02*
Y182480D01*
X212598Y178347D02*
X213779Y177165D01*
X212598Y178347D02*
Y182480D01*
X210000Y188386D02*
Y194000D01*
X207874Y188386D02*
X210000D01*
X212598D01*
X250000Y194000D02*
Y200000D01*
X240000Y194000D02*
Y200000D01*
X230000Y194000D02*
Y200000D01*
X220000Y194000D02*
Y200000D01*
X210000Y194000D02*
Y200000D01*
X200000Y194000D02*
Y200000D01*
X190000Y194000D02*
Y200000D01*
X180000Y194000D02*
Y200000D01*
X164000Y194000D02*
Y200000D01*
X154000Y194000D02*
Y200000D01*
X144000Y194000D02*
Y200000D01*
X134000Y194000D02*
Y200000D01*
X124000Y194000D02*
Y200000D01*
X114000Y194000D02*
Y200000D01*
X84000Y194000D02*
Y200000D01*
X74000Y194000D02*
Y200000D01*
X232480Y140157D02*
X232480Y140157D01*
X235433D01*
X238386D01*
D58*
X140945Y43701D02*
X142126Y44882D01*
Y47835D01*
D59*
X62746Y113779D02*
X72047Y104478D01*
Y102362D02*
Y104478D01*
X37402Y172097D02*
Y174803D01*
X34252Y118110D02*
X38583D01*
X40157Y116535D01*
Y107087D02*
Y116535D01*
X56693Y113779D02*
X62746D01*
X37402Y172097D02*
X42913Y166585D01*
Y127559D02*
Y166585D01*
Y127559D02*
X56693Y113779D01*
X38189Y125984D02*
Y129134D01*
D60*
X124016Y43307D02*
Y82284D01*
Y35433D02*
Y43307D01*
Y82284D02*
Y113386D01*
Y25197D02*
Y35433D01*
X174213D02*
X176772D01*
X174213Y24606D02*
Y30315D01*
X170079Y20472D02*
X174213Y24606D01*
X133465Y20472D02*
X170079D01*
X168307Y30315D02*
Y35433D01*
X164567Y35433D02*
X164567Y35433D01*
X168307D01*
X133661Y30315D02*
Y36417D01*
X139567Y25591D02*
X142913D01*
X139567D02*
Y30315D01*
X124016Y113386D02*
X124409Y113779D01*
X124016Y25197D02*
X128740Y20472D01*
X133465D01*
X133661Y20669D01*
Y25591D01*
X238386Y97638D02*
Y125984D01*
D61*
X112205Y51968D02*
Y74410D01*
X108268Y78347D02*
X112205Y74410D01*
X90214Y78347D02*
X108268D01*
X64173Y104387D02*
X90214Y78347D01*
X64173Y104387D02*
Y106299D01*
X81496Y70473D02*
X107087D01*
X72835Y79134D02*
X81496Y70473D01*
X68898Y79134D02*
X72835D01*
X173858Y16142D02*
X180000Y10000D01*
X121260Y16142D02*
X173858D01*
X114173Y23228D02*
X121260Y16142D01*
X62598Y41732D02*
Y55905D01*
Y41732D02*
X81102Y23228D01*
X114173D01*
X107087Y67323D02*
Y70473D01*
X47244Y129528D02*
Y133858D01*
X21260Y89708D02*
Y104331D01*
Y89708D02*
X35771Y75197D01*
X67520Y70669D02*
X70866Y74016D01*
X35771Y75197D02*
X64961D01*
X68898Y79134D01*
X5512Y96850D02*
X31693Y70669D01*
X67520D01*
D62*
X60000Y200000D02*
D03*
X55000Y10000D02*
D03*
X260000Y140000D02*
D03*
Y30000D02*
D03*
D63*
X10236Y100787D02*
D03*
Y127559D02*
D03*
D64*
X32874Y47638D02*
D03*
D65*
X15157D02*
D03*
D66*
X14567Y141969D02*
D03*
X250000Y10000D02*
D03*
X210000D02*
D03*
X220000D02*
D03*
X230000D02*
D03*
X240000D02*
D03*
X260551Y99803D02*
D03*
X250551D02*
D03*
X260551Y109803D02*
D03*
X250551D02*
D03*
X260551Y119803D02*
D03*
X74000Y200000D02*
D03*
X84000D02*
D03*
X154000D02*
D03*
X144000D02*
D03*
X134000D02*
D03*
X124000D02*
D03*
X114000D02*
D03*
X104000D02*
D03*
X94000D02*
D03*
X240000D02*
D03*
X230000D02*
D03*
X220000D02*
D03*
X210000D02*
D03*
X200000D02*
D03*
X190000D02*
D03*
X180000D02*
D03*
X170000Y10000D02*
D03*
X160000D02*
D03*
X150000D02*
D03*
X140000D02*
D03*
X130000D02*
D03*
X120000D02*
D03*
X110000D02*
D03*
D67*
X14567Y151969D02*
D03*
X250551Y119803D02*
D03*
D68*
X200000Y10000D02*
D03*
X164000Y200000D02*
D03*
X250000D02*
D03*
X180000Y10000D02*
D03*
D69*
X248524Y49213D02*
D03*
X248425Y75197D02*
D03*
X118504Y179921D02*
D03*
X119685Y190157D02*
D03*
X128740Y191732D02*
D03*
X127165Y182677D02*
D03*
X143307D02*
D03*
X135433Y176378D02*
D03*
X131889Y176378D02*
D03*
X240945Y135433D02*
D03*
X235039Y125984D02*
D03*
Y130709D02*
D03*
X240945D02*
D03*
X103937Y133071D02*
D03*
X191339Y162205D02*
D03*
X200000D02*
D03*
X179921Y152461D02*
D03*
X112205Y51968D02*
D03*
X142126Y57480D02*
D03*
X132283Y43701D02*
D03*
X124016Y43307D02*
D03*
X129921Y72835D02*
D03*
X124016Y82284D02*
D03*
X112992Y82284D02*
D03*
X118110D02*
D03*
X112598Y111024D02*
D03*
X120866Y148425D02*
D03*
X96850Y148031D02*
D03*
X101969Y149213D02*
D03*
X99606Y158661D02*
D03*
X97638Y166929D02*
D03*
X209842Y140157D02*
D03*
X219291Y148425D02*
D03*
X212598Y150000D02*
D03*
X220177Y152461D02*
D03*
X215059D02*
D03*
X227854Y150000D02*
D03*
X222736D02*
D03*
X196850Y147638D02*
D03*
X193307D02*
D03*
X122441Y3543D02*
D03*
X94882Y136152D02*
D03*
X120472Y138583D02*
D03*
X165748Y146457D02*
D03*
X158661Y143307D02*
D03*
X196063Y187795D02*
D03*
X38583Y155118D02*
D03*
X53543Y163386D02*
D03*
X37008Y160236D02*
D03*
X89370Y117717D02*
D03*
X86221Y111417D02*
D03*
X96457Y114173D02*
D03*
X92126D02*
D03*
X140551Y162204D02*
D03*
X135433Y161417D02*
D03*
X134252Y157874D02*
D03*
X21298Y190120D02*
D03*
X21260Y186614D02*
D03*
X125591Y161811D02*
D03*
X121653D02*
D03*
X149803Y139173D02*
D03*
X212500Y160531D02*
D03*
X230413Y152461D02*
D03*
X168405Y160531D02*
D03*
X207382Y160531D02*
D03*
X220177Y174016D02*
D03*
X225295D02*
D03*
X203937Y167717D02*
D03*
X181201Y162992D02*
D03*
X164173Y167717D02*
D03*
X64567Y117717D02*
D03*
X3937Y150787D02*
D03*
Y138976D02*
D03*
Y109843D02*
D03*
Y79921D02*
D03*
Y62992D02*
D03*
Y43307D02*
D03*
Y23622D02*
D03*
X240158Y205906D02*
D03*
X220472D02*
D03*
X200787D02*
D03*
X181102D02*
D03*
X161417D02*
D03*
X141732D02*
D03*
X122047D02*
D03*
X102362D02*
D03*
X82677D02*
D03*
X43307D02*
D03*
X255906Y198425D02*
D03*
Y183071D02*
D03*
Y163386D02*
D03*
X266142Y148031D02*
D03*
Y119685D02*
D03*
Y81102D02*
D03*
Y36220D02*
D03*
Y16535D02*
D03*
X255906Y3937D02*
D03*
X240158D02*
D03*
X220472D02*
D03*
X200787D02*
D03*
X181102D02*
D03*
X161417D02*
D03*
X141732D02*
D03*
X102362D02*
D03*
X82677D02*
D03*
X62992D02*
D03*
X43307D02*
D03*
X23622D02*
D03*
X3937D02*
D03*
X164567Y35433D02*
D03*
X24803Y25197D02*
D03*
X266929Y100000D02*
D03*
X182283Y25984D02*
D03*
X176772Y35433D02*
D03*
X145669Y41732D02*
D03*
X140945Y43701D02*
D03*
X133661Y36417D02*
D03*
X142913Y25591D02*
D03*
X127118Y27118D02*
D03*
X130000Y25197D02*
D03*
X221260Y35433D02*
D03*
Y51181D02*
D03*
X179921Y118110D02*
D03*
X182283Y125591D02*
D03*
X187795Y112599D02*
D03*
X183465Y110630D02*
D03*
X124409Y113779D02*
D03*
X72047Y102362D02*
D03*
X155118Y144095D02*
D03*
X20866Y141732D02*
D03*
X57480Y172441D02*
D03*
X29921Y156693D02*
D03*
X238386Y97638D02*
D03*
X77165Y105905D02*
D03*
X74803Y108661D02*
D03*
X129921Y102756D02*
D03*
X62598Y55905D02*
D03*
X38583Y151181D02*
D03*
X20079Y156299D02*
D03*
X235827Y159055D02*
D03*
X197244Y112598D02*
D03*
X192913Y111811D02*
D03*
X200000Y110236D02*
D03*
X178347Y124803D02*
D03*
X119685Y43307D02*
D03*
X63779Y66535D02*
D03*
X107087Y70472D02*
D03*
Y67323D02*
D03*
X5118Y70079D02*
D03*
X74410Y44488D02*
D03*
X103543Y58268D02*
D03*
Y54331D02*
D03*
X68504Y58661D02*
D03*
Y54724D02*
D03*
X63779Y9055D02*
D03*
X69291D02*
D03*
X66535Y13780D02*
D03*
X63779Y18504D02*
D03*
X69291D02*
D03*
X212205Y125591D02*
D03*
X91338Y136614D02*
D03*
X120472Y176772D02*
D03*
X201181Y130315D02*
D03*
X212204Y111417D02*
D03*
X212205Y116142D02*
D03*
X201181Y116535D02*
D03*
X212205Y120866D02*
D03*
X191338Y133071D02*
D03*
X120866Y143701D02*
D03*
X118110Y146063D02*
D03*
X100000Y173228D02*
D03*
X85039Y137795D02*
D03*
X122441Y117323D02*
D03*
X165354Y90551D02*
D03*
X193701Y130315D02*
D03*
X114173Y47244D02*
D03*
Y39370D02*
D03*
Y31496D02*
D03*
X107087D02*
D03*
Y39370D02*
D03*
Y47244D02*
D03*
X138976Y153543D02*
D03*
X92126Y121260D02*
D03*
X61811Y109843D02*
D03*
X117717Y140945D02*
D03*
X129528D02*
D03*
X136221Y145276D02*
D03*
X138583Y148425D02*
D03*
X134252Y138583D02*
D03*
X159449Y111417D02*
D03*
Y106693D02*
D03*
X162205Y109055D02*
D03*
Y113779D02*
D03*
X184646Y129921D02*
D03*
X188583D02*
D03*
X198425Y127559D02*
D03*
X199213Y124016D02*
D03*
X206693Y138189D02*
D03*
X165354Y102362D02*
D03*
X168898D02*
D03*
X196850Y103150D02*
D03*
X194095Y107874D02*
D03*
X191339Y105512D02*
D03*
X220473Y82677D02*
D03*
Y59055D02*
D03*
Y66929D02*
D03*
Y74803D02*
D03*
X165354Y82677D02*
D03*
X47244Y133858D02*
D03*
X37402Y174803D02*
D03*
X41732Y175197D02*
D03*
X48031Y176378D02*
D03*
X44685Y172638D02*
D03*
X29921Y177559D02*
D03*
X24803Y180709D02*
D03*
X38189Y195669D02*
D03*
X28740Y59842D02*
D03*
Y110236D02*
D03*
X34252Y144095D02*
D03*
X104331Y163779D02*
D03*
Y168898D02*
D03*
X40157Y107087D02*
D03*
X76378Y121653D02*
D03*
X81102D02*
D03*
X76378Y132677D02*
D03*
X81102D02*
D03*
X60236Y119291D02*
D03*
X54724Y124409D02*
D03*
X57874D02*
D03*
X57874Y84645D02*
D03*
X53150Y79134D02*
D03*
X42913Y79528D02*
D03*
X49213Y81496D02*
D03*
X64173Y96063D02*
D03*
Y98819D02*
D03*
Y106299D02*
D03*
X21260Y181890D02*
D03*
X27500Y183012D02*
D03*
X126772Y117520D02*
D03*
X111417Y114567D02*
D03*
X118504Y117520D02*
D03*
X111417Y131496D02*
D03*
X130512Y170276D02*
D03*
X134449D02*
D03*
X138386D02*
D03*
X178642Y160531D02*
D03*
X176083Y162992D02*
D03*
X183760Y150000D02*
D03*
X149803Y143110D02*
D03*
X141732Y145079D02*
D03*
Y141142D02*
D03*
X151969Y158661D02*
D03*
X173524Y160531D02*
D03*
X157087Y176378D02*
D03*
X161024D02*
D03*
X145276D02*
D03*
X149213Y183071D02*
D03*
X185827Y174409D02*
D03*
X190551D02*
D03*
X74803Y114567D02*
D03*
X34055Y82480D02*
D03*
X70866Y74016D02*
D03*
X5512Y96850D02*
D03*
X21260Y104331D02*
D03*
X46850Y137795D02*
D03*
X38189Y129134D02*
D03*
X36614Y133858D02*
D03*
X258661Y155118D02*
D03*
X235039Y135433D02*
D03*
X234646Y150787D02*
D03*
X236614Y144488D02*
D03*
X239764Y146850D02*
D03*
X216535Y130709D02*
D03*
X219291Y128347D02*
D03*
X235433Y140157D02*
D03*
X221654D02*
D03*
X63779Y164567D02*
D03*
D70*
X49213Y98032D02*
D03*
X52165Y99410D02*
D03*
X46260D02*
D03*
Y96653D02*
D03*
X52165D02*
D03*
D78*
X101870Y124409D02*
D03*
X94980D02*
D03*
X101870Y31496D02*
D03*
X94980D02*
D03*
X101870Y39370D02*
D03*
X94980D02*
D03*
X101870Y47244D02*
D03*
X94980D02*
D03*
X101870Y85039D02*
D03*
X94980D02*
D03*
D79*
X249213Y172835D02*
D03*
D80*
X50000Y144095D02*
D03*
X28740D02*
D03*
X50000Y64961D02*
D03*
X28740D02*
D03*
X50000Y104724D02*
D03*
X28740D02*
D03*
M02*
