G04 Layer_Color=8421504*
%FSLAX25Y25*%
%MOIN*%
G70*
G01*
G75*
%ADD11R,0.02559X0.03347*%
%ADD12R,0.03347X0.02559*%
%ADD13R,0.01968X0.01968*%
%ADD14R,0.01968X0.01968*%
%ADD15R,0.06299X0.03937*%
G04:AMPARAMS|DCode=16|XSize=110.24mil|YSize=94.49mil|CornerRadius=4.72mil|HoleSize=0mil|Usage=FLASHONLY|Rotation=0.000|XOffset=0mil|YOffset=0mil|HoleType=Round|Shape=RoundedRectangle|*
%AMROUNDEDRECTD16*
21,1,0.11024,0.08504,0,0,0.0*
21,1,0.10079,0.09449,0,0,0.0*
1,1,0.00945,0.05039,-0.04252*
1,1,0.00945,-0.05039,-0.04252*
1,1,0.00945,-0.05039,0.04252*
1,1,0.00945,0.05039,0.04252*
%
%ADD16ROUNDEDRECTD16*%
%ADD18O,0.03347X0.01772*%
%ADD20R,0.01378X0.02165*%
%ADD21R,0.02165X0.01378*%
%ADD22R,0.11811X0.04724*%
%ADD23R,0.05905X0.05118*%
%ADD24R,0.00984X0.03150*%
%ADD25O,0.00984X0.04921*%
%ADD26O,0.04921X0.00984*%
%ADD27R,0.01575X0.02559*%
%ADD29R,0.01102X0.03150*%
%ADD31R,0.03937X0.08465*%
%ADD32R,0.12598X0.08465*%
%ADD33R,0.01929X0.01181*%
%ADD34R,0.02047X0.01181*%
%ADD35O,0.01575X0.04724*%
%ADD37R,0.02362X0.04331*%
%ADD38R,0.03937X0.07874*%
%ADD39R,0.02500X0.08000*%
%ADD40R,0.10630X0.03937*%
%ADD41R,0.05315X0.03661*%
%ADD42R,0.08583X0.06378*%
%ADD43R,0.04803X0.03583*%
%ADD44R,0.03000X0.09449*%
G04:AMPARAMS|DCode=45|XSize=15.75mil|YSize=55.12mil|CornerRadius=0.79mil|HoleSize=0mil|Usage=FLASHONLY|Rotation=270.000|XOffset=0mil|YOffset=0mil|HoleType=Round|Shape=RoundedRectangle|*
%AMROUNDEDRECTD45*
21,1,0.01575,0.05354,0,0,270.0*
21,1,0.01417,0.05512,0,0,270.0*
1,1,0.00158,-0.02677,-0.00709*
1,1,0.00158,-0.02677,0.00709*
1,1,0.00158,0.02677,0.00709*
1,1,0.00158,0.02677,-0.00709*
%
%ADD45ROUNDEDRECTD45*%
G04:AMPARAMS|DCode=46|XSize=70.87mil|YSize=74.8mil|CornerRadius=3.54mil|HoleSize=0mil|Usage=FLASHONLY|Rotation=270.000|XOffset=0mil|YOffset=0mil|HoleType=Round|Shape=RoundedRectangle|*
%AMROUNDEDRECTD46*
21,1,0.07087,0.06772,0,0,270.0*
21,1,0.06378,0.07480,0,0,270.0*
1,1,0.00709,-0.03386,-0.03189*
1,1,0.00709,-0.03386,0.03189*
1,1,0.00709,0.03386,0.03189*
1,1,0.00709,0.03386,-0.03189*
%
%ADD46ROUNDEDRECTD46*%
G04:AMPARAMS|DCode=47|XSize=90.55mil|YSize=74.8mil|CornerRadius=3.74mil|HoleSize=0mil|Usage=FLASHONLY|Rotation=270.000|XOffset=0mil|YOffset=0mil|HoleType=Round|Shape=RoundedRectangle|*
%AMROUNDEDRECTD47*
21,1,0.09055,0.06732,0,0,270.0*
21,1,0.08307,0.07480,0,0,270.0*
1,1,0.00748,-0.03366,-0.04153*
1,1,0.00748,-0.03366,0.04153*
1,1,0.00748,0.03366,0.04153*
1,1,0.00748,0.03366,-0.04153*
%
%ADD47ROUNDEDRECTD47*%
%ADD48R,0.03937X0.05512*%
%ADD49R,0.03347X0.03543*%
%ADD50R,0.05512X0.03937*%
%ADD51R,0.03543X0.03347*%
%ADD52R,0.06890X0.04724*%
%ADD53R,0.04724X0.06890*%
%ADD54R,0.19685X0.05905*%
%ADD55R,0.19685X0.07874*%
G04:AMPARAMS|DCode=86|XSize=39.37mil|YSize=39.37mil|CornerRadius=3.94mil|HoleSize=0mil|Usage=FLASHONLY|Rotation=0.000|XOffset=0mil|YOffset=0mil|HoleType=Round|Shape=RoundedRectangle|*
%AMROUNDEDRECTD86*
21,1,0.03937,0.03150,0,0,0.0*
21,1,0.03150,0.03937,0,0,0.0*
1,1,0.00787,0.01575,-0.01575*
1,1,0.00787,-0.01575,-0.01575*
1,1,0.00787,-0.01575,0.01575*
1,1,0.00787,0.01575,0.01575*
%
%ADD86ROUNDEDRECTD86*%
%ADD87R,0.03347X0.01772*%
%ADD88R,0.07244X0.04095*%
%ADD89R,0.00906X0.02756*%
G36*
X135630Y107480D02*
X127803D01*
Y111417D01*
X135630D01*
Y107480D01*
D02*
G37*
G36*
X121803D02*
X113976D01*
Y111417D01*
X121803D01*
Y107480D01*
D02*
G37*
G36*
X55713Y118780D02*
Y108780D01*
X54713Y107780D01*
X51213D01*
Y110529D01*
X52713Y111779D01*
Y115779D01*
X51213Y117030D01*
Y119780D01*
X54713D01*
X55713Y118780D01*
D02*
G37*
G36*
X47213Y117030D02*
X45713Y115779D01*
Y111779D01*
X47213Y110529D01*
Y107780D01*
X43713D01*
X42713Y108780D01*
Y118780D01*
X43713Y119780D01*
X47213D01*
Y117030D01*
D02*
G37*
D11*
X100984Y136221D02*
D03*
X106890D02*
D03*
X202165Y179921D02*
D03*
X196260D02*
D03*
X100984Y168898D02*
D03*
X106890D02*
D03*
X100984Y163779D02*
D03*
X106890D02*
D03*
X106890Y140945D02*
D03*
X100984D02*
D03*
X30118Y140551D02*
D03*
X24213D02*
D03*
X24213Y145669D02*
D03*
X30118D02*
D03*
X97047Y144488D02*
D03*
X91142D02*
D03*
X110433Y47244D02*
D03*
X116339D02*
D03*
X110433Y39370D02*
D03*
X116339D02*
D03*
X110433Y31496D02*
D03*
X116339D02*
D03*
X54134Y159055D02*
D03*
X48228D02*
D03*
X57677Y135039D02*
D03*
X51772D02*
D03*
X36024Y195669D02*
D03*
X30118D02*
D03*
D12*
X106693Y159646D02*
D03*
Y153740D02*
D03*
X42913Y88386D02*
D03*
Y82480D02*
D03*
X38189Y82480D02*
D03*
Y88386D02*
D03*
X53543Y166732D02*
D03*
Y172638D02*
D03*
X53150Y87992D02*
D03*
Y82087D02*
D03*
X57874Y82087D02*
D03*
Y87992D02*
D03*
X123622Y179724D02*
D03*
Y173819D02*
D03*
X128347Y179724D02*
D03*
Y173819D02*
D03*
X127165Y82087D02*
D03*
Y76181D02*
D03*
X196457Y169095D02*
D03*
Y175000D02*
D03*
D13*
X102756Y158268D02*
D03*
Y154331D02*
D03*
X201181Y126772D02*
D03*
Y122835D02*
D03*
X238583Y159055D02*
D03*
Y155118D02*
D03*
X145669Y39370D02*
D03*
Y35433D02*
D03*
X118504Y175197D02*
D03*
Y171260D02*
D03*
X111417Y117126D02*
D03*
Y121063D02*
D03*
Y128937D02*
D03*
Y125000D02*
D03*
X49213Y84252D02*
D03*
Y88189D02*
D03*
X57480Y126772D02*
D03*
Y130709D02*
D03*
X203543Y170079D02*
D03*
Y174016D02*
D03*
Y165354D02*
D03*
Y161417D02*
D03*
X31890Y186221D02*
D03*
Y182283D02*
D03*
X164173Y170079D02*
D03*
Y174016D02*
D03*
Y165354D02*
D03*
Y161417D02*
D03*
D14*
X104331Y149213D02*
D03*
X108268D02*
D03*
X104331Y145276D02*
D03*
X108268D02*
D03*
X178346Y122441D02*
D03*
X182283D02*
D03*
X141339Y178740D02*
D03*
X145276D02*
D03*
X155118Y147047D02*
D03*
X151181D02*
D03*
X125984Y127559D02*
D03*
X129921D02*
D03*
X92126Y68110D02*
D03*
X88189D02*
D03*
X118504Y120079D02*
D03*
X122441D02*
D03*
X118504Y124016D02*
D03*
X122441D02*
D03*
X43701Y159055D02*
D03*
X39764D02*
D03*
D15*
X14961Y124016D02*
D03*
Y114173D02*
D03*
Y104331D02*
D03*
X5512D02*
D03*
Y114173D02*
D03*
Y124016D02*
D03*
D16*
X15157Y25197D02*
D03*
X39173D02*
D03*
Y70079D02*
D03*
X15157D02*
D03*
D18*
X254921Y151181D02*
D03*
Y155118D02*
D03*
Y159055D02*
D03*
X243504D02*
D03*
Y155118D02*
D03*
Y151181D02*
D03*
D20*
X187795Y115748D02*
D03*
X189764D02*
D03*
X191732D02*
D03*
X193701D02*
D03*
X195669D02*
D03*
Y125197D02*
D03*
X193701D02*
D03*
X191732D02*
D03*
X189764D02*
D03*
X187795D02*
D03*
D21*
X196457Y118504D02*
D03*
Y120473D02*
D03*
Y122441D02*
D03*
X187008D02*
D03*
Y120473D02*
D03*
Y118504D02*
D03*
D22*
X229724Y90551D02*
D03*
Y82677D02*
D03*
Y74803D02*
D03*
Y66929D02*
D03*
Y59055D02*
D03*
Y51181D02*
D03*
Y43307D02*
D03*
Y35433D02*
D03*
X156102D02*
D03*
Y43307D02*
D03*
Y51181D02*
D03*
Y59055D02*
D03*
Y90551D02*
D03*
Y82677D02*
D03*
Y74803D02*
D03*
Y66929D02*
D03*
D23*
X151181Y172835D02*
D03*
D24*
X154134Y178524D02*
D03*
X152165D02*
D03*
X150197D02*
D03*
X148228D02*
D03*
X154134Y167146D02*
D03*
X152165D02*
D03*
X150197D02*
D03*
X148228D02*
D03*
D25*
X118701Y133760D02*
D03*
X120669D02*
D03*
X122638D02*
D03*
X124606D02*
D03*
X126575D02*
D03*
X128543D02*
D03*
X130512D02*
D03*
X132480D02*
D03*
X134449D02*
D03*
X136417D02*
D03*
X138386D02*
D03*
X140354D02*
D03*
Y166240D02*
D03*
X138386D02*
D03*
X136417D02*
D03*
X134449D02*
D03*
X132480D02*
D03*
X130512D02*
D03*
X128543D02*
D03*
X126575D02*
D03*
X124606D02*
D03*
X122638D02*
D03*
X120669D02*
D03*
X118701D02*
D03*
D26*
X145768Y139173D02*
D03*
Y141142D02*
D03*
Y143110D02*
D03*
Y145079D02*
D03*
Y147047D02*
D03*
Y149016D02*
D03*
Y150984D02*
D03*
Y152953D02*
D03*
Y154921D02*
D03*
Y156890D02*
D03*
Y158858D02*
D03*
Y160827D02*
D03*
X113287D02*
D03*
Y158858D02*
D03*
Y156890D02*
D03*
Y154921D02*
D03*
Y152953D02*
D03*
Y150984D02*
D03*
Y149016D02*
D03*
Y147047D02*
D03*
Y145079D02*
D03*
Y143110D02*
D03*
Y141142D02*
D03*
Y139173D02*
D03*
D27*
X34843Y172933D02*
D03*
X32283D02*
D03*
X29724D02*
D03*
Y164862D02*
D03*
X32283D02*
D03*
X34843D02*
D03*
D29*
X49213Y93110D02*
D03*
X45276D02*
D03*
X47244D02*
D03*
X51181D02*
D03*
X53150D02*
D03*
Y102953D02*
D03*
X51181D02*
D03*
X47244D02*
D03*
X45276D02*
D03*
X49213D02*
D03*
D31*
X86221Y75886D02*
D03*
X95276D02*
D03*
X104331D02*
D03*
X101181Y46161D02*
D03*
X92126D02*
D03*
X83071D02*
D03*
D32*
X95276Y98917D02*
D03*
X92126Y23130D02*
D03*
D33*
X27500Y189370D02*
D03*
Y187402D02*
D03*
Y185433D02*
D03*
X24468D02*
D03*
Y187402D02*
D03*
D34*
Y189370D02*
D03*
D35*
X207382Y156496D02*
D03*
X209941D02*
D03*
X212500D02*
D03*
X215059D02*
D03*
X217618D02*
D03*
X220177D02*
D03*
X222736D02*
D03*
X225295D02*
D03*
X227854D02*
D03*
X230413D02*
D03*
X207382Y178937D02*
D03*
X209941D02*
D03*
X212500D02*
D03*
X215059D02*
D03*
X217618D02*
D03*
X220177D02*
D03*
X222736D02*
D03*
X225295D02*
D03*
X227854D02*
D03*
X230413D02*
D03*
X168405Y156496D02*
D03*
X170965D02*
D03*
X173524D02*
D03*
X176083D02*
D03*
X178642D02*
D03*
X181201D02*
D03*
X183760D02*
D03*
X186319D02*
D03*
X188878D02*
D03*
X191437D02*
D03*
X168405Y178937D02*
D03*
X170965D02*
D03*
X173524D02*
D03*
X176083D02*
D03*
X178642D02*
D03*
X181201D02*
D03*
X183760D02*
D03*
X186319D02*
D03*
X188878D02*
D03*
X191437D02*
D03*
D37*
X44488Y164272D02*
D03*
X40748Y171949D02*
D03*
X48228D02*
D03*
D38*
X129331Y109449D02*
D03*
X120276D02*
D03*
D39*
X54213Y113779D02*
D03*
X44213D02*
D03*
D40*
X64173Y140945D02*
D03*
Y149606D02*
D03*
D41*
X37795Y182815D02*
D03*
Y189626D02*
D03*
D42*
X64567Y23976D02*
D03*
Y40591D02*
D03*
D43*
X91732Y139911D02*
D03*
Y127018D02*
D03*
X70866Y98573D02*
D03*
Y85679D02*
D03*
Y66782D02*
D03*
Y79675D02*
D03*
X61024Y60778D02*
D03*
Y47884D02*
D03*
D44*
X122283Y65945D02*
D03*
X127284D02*
D03*
X132283D02*
D03*
X137284D02*
D03*
X142283D02*
D03*
X122283Y50591D02*
D03*
X127284D02*
D03*
X132283D02*
D03*
X137284D02*
D03*
X142283D02*
D03*
D45*
X16634Y192126D02*
D03*
Y189567D02*
D03*
Y187008D02*
D03*
Y184449D02*
D03*
Y181890D02*
D03*
D46*
X5413Y191535D02*
D03*
Y182480D02*
D03*
D47*
Y201772D02*
D03*
Y172244D02*
D03*
D48*
X132972Y122047D02*
D03*
X126870D02*
D03*
X93799Y56299D02*
D03*
X99902D02*
D03*
D49*
X140945Y35630D02*
D03*
Y40748D02*
D03*
X40551Y103740D02*
D03*
Y98622D02*
D03*
X71260Y132480D02*
D03*
Y127362D02*
D03*
D50*
X59449Y103839D02*
D03*
Y97736D02*
D03*
X51575Y123721D02*
D03*
Y129823D02*
D03*
D51*
X37795Y177559D02*
D03*
X32677D02*
D03*
X28543Y160236D02*
D03*
X33661D02*
D03*
X64370Y121653D02*
D03*
X69488D02*
D03*
X102953Y67716D02*
D03*
X97835D02*
D03*
D52*
X78347Y126575D02*
D03*
Y137205D02*
D03*
D53*
X72244Y56693D02*
D03*
X82874D02*
D03*
X38386Y202362D02*
D03*
X27756D02*
D03*
X34843Y153150D02*
D03*
X24213D02*
D03*
D54*
X259370Y49409D02*
D03*
Y75000D02*
D03*
D55*
Y62205D02*
D03*
D86*
X249213Y157677D02*
D03*
Y152559D02*
D03*
D87*
X47106Y96713D02*
D03*
X47106Y99350D02*
D03*
X51319Y99350D02*
D03*
X51319Y96713D02*
D03*
D88*
X103543Y118110D02*
D03*
Y127953D02*
D03*
D89*
X62205Y127657D02*
D03*
X64173D02*
D03*
X66142D02*
D03*
X62205Y132185D02*
D03*
X64173D02*
D03*
X66142D02*
D03*
M02*
